<svg width="64" height="46" viewBox="0 0 64 46" fill="none" xmlns="http://www.w3.org/2000/svg">
<path d="M18 5C18 2.23858 20.2386 0 23 0H41C43.7614 0 46 2.23858 46 5V41C46 43.7614 43.7614 46 41 46H23C20.2386 46 18 43.7614 18 41V5Z" fill="#EEF0F6"/>
<path fill-rule="evenodd" clip-rule="evenodd" d="M41 2H23C21.3431 2 20 3.34315 20 5V41C20 42.6569 21.3431 44 23 44H41C42.6569 44 44 42.6569 44 41V5C44 3.34315 42.6569 2 41 2ZM23 0C20.2386 0 18 2.23858 18 5V41C18 43.7614 20.2386 46 23 46H41C43.7614 46 46 43.7614 46 41V5C46 2.23858 43.7614 0 41 0H23Z" fill="#EEF0F6"/>
<path d="M25 2.70927C25 3.97441 26.0256 5 27.2907 5H36.7093C37.9744 5 39 3.97441 39 2.70927V0H25V2.70927Z" fill="#E1DEF4"/>
<path d="M27 42C27 41.4477 27.4477 41 28 41H36C36.5523 41 37 41.4477 37 42C37 42.5523 36.5523 43 36 43H28C27.4477 43 27 42.5523 27 42Z" fill="white"/>
<path d="M22 12C22 10.3431 23.3431 9 25 9H39C40.6569 9 42 10.3431 42 12V36C42 37.6569 40.6569 39 39 39H25C23.3431 39 22 37.6569 22 36V12Z" fill="#3AC2BA"/>
<g clip-path="url(#clip0_1_6216)">
<path d="M27.255 11.9207C27.3038 11.8718 27.3038 11.7927 27.255 11.7439C27.2062 11.6951 27.127 11.6951 27.0782 11.7439L25.9999 12.8222L24.9216 11.7439C24.8728 11.6951 24.7937 11.6951 24.7449 11.7439C24.696 11.7927 24.696 11.8718 24.7449 11.9207L25.8231 12.9989L24.7449 14.0772C24.6961 14.126 24.6961 14.2052 24.7449 14.254C24.7937 14.3028 24.8728 14.3028 24.9216 14.254L25.9999 13.1757L27.0782 14.254C27.127 14.3028 27.2062 14.3028 27.255 14.254C27.3038 14.2052 27.3038 14.126 27.255 14.0772L26.1767 12.9989L27.255 11.9207Z" fill="white"/>
<path fill-rule="evenodd" clip-rule="evenodd" d="M25.9999 12.1151L26.7246 11.3903C26.9687 11.1463 27.3645 11.1463 27.6085 11.3903C27.8526 11.6344 27.8526 12.0301 27.6085 12.2742M25.116 12.9989L24.3913 12.2742C24.1472 12.0301 24.1472 11.6344 24.3913 11.3903C24.6354 11.1463 25.0311 11.1463 25.2752 11.3903L25.9999 12.1151M25.116 12.9989L24.3913 13.7237C24.1472 13.9677 24.1472 14.3635 24.3913 14.6076C24.6354 14.8516 25.0311 14.8516 25.2752 14.6076L25.9999 13.8828L26.7246 14.6076C26.9687 14.8516 27.3644 14.8516 27.6085 14.6076C27.8526 14.3635 27.8526 13.9677 27.6085 13.7237L26.8838 12.9989L27.6085 12.2742M27.4315 12.0977L27.4318 12.0974L27.4315 12.0977Z" fill="white"/>
</g>
<path d="M29 23C29 21.3431 30.3431 20 32 20C33.6569 20 35 21.3431 35 23C35 24.6569 33.6569 26 32 26C30.3431 26 29 24.6569 29 23Z" fill="white"/>
<path d="M24 35C24 34.4477 24.4477 34 25 34H35C35.5523 34 36 34.4477 36 35C36 35.5523 35.5523 36 35 36H25C24.4477 36 24 35.5523 24 35Z" fill="white"/>
<path d="M24 32C24 31.4477 24.4477 31 25 31H39C39.5523 31 40 31.4477 40 32C40 32.5523 39.5523 33 39 33H25C24.4477 33 24 32.5523 24 32Z" fill="white"/>
<defs>
<clipPath id="clip0_1_6216">
<rect width="4" height="4" fill="white" transform="translate(24 11)"/>
</clipPath>
</defs>
</svg>
