<svg width="64" height="46" viewBox="0 0 64 46" fill="none" xmlns="http://www.w3.org/2000/svg">
<mask id="mask0_1_6161" style="mask-type:alpha" maskUnits="userSpaceOnUse" x="0" y="0" width="64" height="46">
<path d="M0 5C0 2.23858 2.23858 0 5 0H59C61.7614 0 64 2.23858 64 5V41C64 43.7614 61.7614 46 59 46H5C2.23858 46 0 43.7614 0 41V5Z" fill="#6D3CC7"/>
</mask>
<g mask="url(#mask0_1_6161)">
<path d="M0 5C0 2.23858 2.23858 0 5 0H59C61.7614 0 64 2.23858 64 5V41C64 43.7614 61.7614 46 59 46H5C2.23858 46 0 43.7614 0 41V5Z" fill="#EEF0F6"/>
<path fill-rule="evenodd" clip-rule="evenodd" d="M59 2H5C3.34315 2 2 3.34315 2 5V41C2 42.6569 3.34315 44 5 44H59C60.6569 44 62 42.6569 62 41V5C62 3.34315 60.6569 2 59 2ZM5 0C2.23858 0 0 2.23858 0 5V41C0 43.7614 2.23858 46 5 46H59C61.7614 46 64 43.7614 64 41V5C64 2.23858 61.7614 0 59 0H5Z" fill="#EEF0F6"/>
<path d="M0 2.29073C0 1.02559 1.02559 0 2.29073 0H61.7093C62.9744 0 64 1.02559 64 2.29073V8H0V2.29073Z" fill="#E1DEF4"/>
<path d="M50.1918 3.97336C50.1918 4.92178 49.4211 5.69063 48.4703 5.69063C47.5195 5.69063 46.7488 4.92178 46.7488 3.97336C46.7488 3.02495 47.5195 2.2561 48.4703 2.2561C49.4211 2.2561 50.1918 3.02495 50.1918 3.97336Z" fill="white"/>
<path d="M55.2741 3.97336C55.2741 4.92178 54.5033 5.69063 53.5526 5.69063C52.6018 5.69063 51.8311 4.92178 51.8311 3.97336C51.8311 3.02495 52.6018 2.2561 53.5526 2.2561C54.5033 2.2561 55.2741 3.02495 55.2741 3.97336Z" fill="white"/>
<path d="M60.3566 3.97336C60.3566 4.92178 59.5859 5.69063 58.6351 5.69063C57.6843 5.69063 56.9136 4.92178 56.9136 3.97336C56.9136 3.02495 57.6843 2.2561 58.6351 2.2561C59.5859 2.2561 60.3566 3.02495 60.3566 3.97336Z" fill="white"/>
</g>
<path d="M5 14C5 12.3431 6.34315 11 8 11H56C57.6569 11 59 12.3431 59 14V16C59 17.6569 57.6569 19 56 19H8C6.34315 19 5 17.6569 5 16V14Z" fill="white"/>
<path d="M47 25C47 23.3431 48.3431 22 50 22H56C57.6569 22 59 23.3431 59 25V38C59 39.6569 57.6569 41 56 41H50C48.3431 41 47 39.6569 47 38V25Z" fill="white"/>
<path d="M5 23C5 22.4477 5.44772 22 6 22H39C39.5523 22 40 22.4477 40 23C40 23.5523 39.5523 24 39 24H6C5.44772 24 5 23.5523 5 23Z" fill="white"/>
<path d="M5 28C5 27.4477 5.44772 27 6 27H30C30.5523 27 31 27.4477 31 28C31 28.5523 30.5523 29 30 29H6C5.44772 29 5 28.5523 5 28Z" fill="white"/>
<path d="M5 38C5 37.4477 5.44772 37 6 37H17C17.5523 37 18 37.4477 18 38C18 38.5523 17.5523 39 17 39H6C5.44772 39 5 38.5523 5 38Z" fill="white"/>
<path d="M5 33C5 32.4477 5.44772 32 6 32H15C15.5523 32 16 32.4477 16 33C16 33.5523 15.5523 34 15 34H6C5.44771 34 5 33.5523 5 33Z" fill="white"/>
<path d="M18 33C18 32.4477 18.4477 32 19 32H34C34.5523 32 35 32.4477 35 33C35 33.5523 34.5523 34 34 34H19C18.4477 34 18 33.5523 18 33Z" fill="white"/>
<path d="M13 22.6923C13 21.2054 14.2054 20 15.6923 20H56.3077C57.7946 20 59 21.2054 59 22.6923V38.3077C59 39.7946 57.7946 41 56.3077 41H15.6923C14.2054 41 13 39.7946 13 38.3077V22.6923Z" fill="#3AC2BA"/>
<g clip-path="url(#clip0_1_6161)">
<path d="M56.0687 23.1508C56.1297 23.0897 56.1297 22.9908 56.0687 22.9298C56.0076 22.8688 55.9087 22.8688 55.8477 22.9298L54.4998 24.2776L53.152 22.9298C53.091 22.8688 52.992 22.8688 52.931 22.9298C52.87 22.9908 52.87 23.0897 52.931 23.1508L54.2789 24.4986L52.931 25.8465C52.87 25.9075 52.87 26.0064 52.931 26.0674C52.992 26.1285 53.091 26.1285 53.152 26.0674L54.4998 24.7196L55.8477 26.0674C55.9087 26.1285 56.0076 26.1285 56.0687 26.0674C56.1297 26.0064 56.1297 25.9075 56.0687 25.8465L54.7208 24.4986L56.0687 23.1508Z" fill="white"/>
<path fill-rule="evenodd" clip-rule="evenodd" d="M55.4941 22.5762C55.7504 22.32 56.1659 22.32 56.4222 22.5762C56.6785 22.8325 56.6785 23.248 56.4222 23.5043M54.4998 23.5705L53.5055 22.5762C53.2493 22.32 52.8337 22.32 52.5775 22.5762C52.3212 22.8325 52.3212 23.248 52.5775 23.5043L53.5718 24.4986L52.5775 25.4929C52.3212 25.7492 52.3212 26.1647 52.5775 26.421C52.8338 26.6773 53.2493 26.6773 53.5055 26.421L54.4998 25.4267L55.4941 26.421C55.7504 26.6773 56.1659 26.6773 56.4222 26.421C56.6785 26.1647 56.6785 25.7492 56.4222 25.4929L55.4279 24.4986L56.4222 23.5043M53.0415 25.9569L53.2846 25.7139L53.0415 25.9569ZM55.4941 22.5762L54.4998 23.5705L55.4941 22.5762Z" fill="white"/>
</g>
<path d="M28.25 33.0002V29.8752C28.25 27.9565 27.225 26.3502 25.4375 25.9252V25.5002C25.4375 24.9815 25.0125 24.5627 24.4937 24.5627C23.975 24.5627 23.5625 24.9815 23.5625 25.5002V25.9252C21.7687 26.3502 20.75 27.9502 20.75 29.8752V33.0002L19.9375 33.8065C19.5437 34.2002 19.8187 34.8752 20.375 34.8752H28.6062C29.1625 34.8752 29.4437 34.2002 29.05 33.8065L28.25 33.0002ZM24.4937 36.7502C25.1812 36.7502 25.7437 36.1877 25.7437 35.5002H23.2437C23.2437 35.8318 23.3754 36.1497 23.6099 36.3841C23.8443 36.6185 24.1622 36.7502 24.4937 36.7502ZM21.2312 25.9565C21.4937 25.719 21.5 25.3127 21.25 25.0627C21.1351 24.9484 20.9802 24.8832 20.8181 24.8808C20.656 24.8785 20.4994 24.9393 20.3812 25.0502C19.2906 26.0448 18.57 27.3802 18.3375 28.8377C18.2812 29.219 18.575 29.5627 18.9625 29.5627C19.2625 29.5627 19.525 29.344 19.575 29.044C19.7592 27.8562 20.3435 26.7669 21.2312 25.9565ZM28.625 25.0502C28.375 24.819 27.9875 24.8252 27.75 25.0627C27.5 25.3127 27.5125 25.7127 27.7687 25.9502C28.6312 26.744 29.2375 27.8252 29.425 29.0377C29.4687 29.3377 29.7312 29.5565 30.0375 29.5565C30.4187 29.5565 30.7187 29.2127 30.6562 28.8315C30.4187 27.3502 29.6875 26.0315 28.625 25.0502Z" fill="white"/>
<defs>
<clipPath id="clip0_1_6161">
<rect width="5" height="5" fill="white" transform="translate(52 22)"/>
</clipPath>
</defs>
</svg>
