<svg width="64" height="46" viewBox="0 0 64 46" fill="none" xmlns="http://www.w3.org/2000/svg">
<mask id="mask0_1_6317" style="mask-type:alpha" maskUnits="userSpaceOnUse" x="0" y="0" width="64" height="46">
<path d="M0 5C0 2.23858 2.23858 0 5 0H59C61.7614 0 64 2.23858 64 5V41C64 43.7614 61.7614 46 59 46H5C2.23858 46 0 43.7614 0 41V5Z" fill="#6D3CC7"/>
</mask>
<g mask="url(#mask0_1_6317)">
<path d="M0 5C0 2.23858 2.23858 0 5 0H59C61.7614 0 64 2.23858 64 5V41C64 43.7614 61.7614 46 59 46H5C2.23858 46 0 43.7614 0 41V5Z" fill="#EEF0F6"/>
<path fill-rule="evenodd" clip-rule="evenodd" d="M59 2H5C3.34315 2 2 3.34315 2 5V41C2 42.6569 3.34315 44 5 44H59C60.6569 44 62 42.6569 62 41V5C62 3.34315 60.6569 2 59 2ZM5 0C2.23858 0 0 2.23858 0 5V41C0 43.7614 2.23858 46 5 46H59C61.7614 46 64 43.7614 64 41V5C64 2.23858 61.7614 0 59 0H5Z" fill="#EEF0F6"/>
<path d="M0 2.29073C0 1.02559 1.02559 0 2.29073 0H61.7093C62.9744 0 64 1.02559 64 2.29073V8H0V2.29073Z" fill="#E1DEF4"/>
<path d="M50.1918 3.97336C50.1918 4.92178 49.4211 5.69063 48.4703 5.69063C47.5195 5.69063 46.7488 4.92178 46.7488 3.97336C46.7488 3.02495 47.5195 2.2561 48.4703 2.2561C49.4211 2.2561 50.1918 3.02495 50.1918 3.97336Z" fill="white"/>
<path d="M55.2741 3.97336C55.2741 4.92178 54.5033 5.69063 53.5526 5.69063C52.6018 5.69063 51.8311 4.92178 51.8311 3.97336C51.8311 3.02495 52.6018 2.2561 53.5526 2.2561C54.5033 2.2561 55.2741 3.02495 55.2741 3.97336Z" fill="white"/>
<path d="M60.3566 3.97336C60.3566 4.92178 59.5859 5.69063 58.6351 5.69063C57.6843 5.69063 56.9136 4.92178 56.9136 3.97336C56.9136 3.02495 57.6843 2.2561 58.6351 2.2561C59.5859 2.2561 60.3566 3.02495 60.3566 3.97336Z" fill="white"/>
</g>
<path d="M5 14C5 12.3431 6.34315 11 8 11H18C19.6569 11 21 12.3431 21 14V23C21 24.6569 19.6569 26 18 26H8C6.34315 26 5 24.6569 5 23V14Z" fill="white"/>
<path d="M24 14C24 12.3431 25.3431 11 27 11H37C38.6569 11 40 12.3431 40 14V23C40 24.6569 38.6569 26 37 26H27C25.3431 26 24 24.6569 24 23V14Z" fill="#3AC2BA"/>
<path d="M43 14C43 12.3431 44.3431 11 46 11H56C57.6569 11 59 12.3431 59 14V23C59 24.6569 57.6569 26 56 26H46C44.3431 26 43 24.6569 43 23V14Z" fill="white"/>
<path d="M43 33C43 31.3431 44.3431 30 46 30H56C57.6569 30 59 31.3431 59 33V38C59 39.6569 57.6569 41 56 41H46C44.3431 41 43 39.6569 43 38V33Z" fill="white"/>
<path d="M5 38C5 37.4477 5.44772 37 6 37H17C17.5523 37 18 37.4477 18 38C18 38.5523 17.5523 39 17 39H6C5.44772 39 5 38.5523 5 38Z" fill="white"/>
<path d="M5 33C5 32.4477 5.44772 32 6 32H15C15.5523 32 16 32.4477 16 33C16 33.5523 15.5523 34 15 34H6C5.44771 34 5 33.5523 5 33Z" fill="white"/>
<path d="M19 33C19 32.4477 19.4477 32 20 32H34C34.5523 32 35 32.4477 35 33C35 33.5523 34.5523 34 34 34H20C19.4477 34 19 33.5523 19 33Z" fill="white"/>
</svg>
