<svg width="64" height="46" viewBox="0 0 64 46" fill="none" xmlns="http://www.w3.org/2000/svg">
<mask id="mask0_1_6248" style="mask-type:alpha" maskUnits="userSpaceOnUse" x="0" y="0" width="64" height="46">
<path d="M0 5C0 2.23858 2.23858 0 5 0H59C61.7614 0 64 2.23858 64 5V41C64 43.7614 61.7614 46 59 46H5C2.23858 46 0 43.7614 0 41V5Z" fill="#6D3CC7"/>
</mask>
<g mask="url(#mask0_1_6248)">
<path d="M0 5C0 2.23858 2.23858 0 5 0H59C61.7614 0 64 2.23858 64 5V41C64 43.7614 61.7614 46 59 46H5C2.23858 46 0 43.7614 0 41V5Z" fill="#EEF0F6"/>
<path fill-rule="evenodd" clip-rule="evenodd" d="M59 2H5C3.34315 2 2 3.34315 2 5V41C2 42.6569 3.34315 44 5 44H59C60.6569 44 62 42.6569 62 41V5C62 3.34315 60.6569 2 59 2ZM5 0C2.23858 0 0 2.23858 0 5V41C0 43.7614 2.23858 46 5 46H59C61.7614 46 64 43.7614 64 41V5C64 2.23858 61.7614 0 59 0H5Z" fill="#EEF0F6"/>
<path d="M0 2.29073C0 1.02559 1.02559 0 2.29073 0H61.7093C62.9744 0 64 1.02559 64 2.29073V8H0V2.29073Z" fill="#E1DEF4"/>
<path d="M50.1918 3.97336C50.1918 4.92178 49.4211 5.69063 48.4703 5.69063C47.5195 5.69063 46.7488 4.92178 46.7488 3.97336C46.7488 3.02495 47.5195 2.2561 48.4703 2.2561C49.4211 2.2561 50.1918 3.02495 50.1918 3.97336Z" fill="white"/>
<path d="M55.2741 3.97336C55.2741 4.92178 54.5033 5.69063 53.5526 5.69063C52.6018 5.69063 51.8311 4.92178 51.8311 3.97336C51.8311 3.02495 52.6018 2.2561 53.5526 2.2561C54.5033 2.2561 55.2741 3.02495 55.2741 3.97336Z" fill="white"/>
<path d="M60.3566 3.97336C60.3566 4.92178 59.5859 5.69063 58.6351 5.69063C57.6843 5.69063 56.9136 4.92178 56.9136 3.97336C56.9136 3.02495 57.6843 2.2561 58.6351 2.2561C59.5859 2.2561 60.3566 3.02495 60.3566 3.97336Z" fill="white"/>
</g>
<path d="M5 13C5 11.3431 6.34315 10 8 10H56C57.6569 10 59 11.3431 59 13V38C59 39.6569 57.6569 41 56 41H8C6.34315 41 5 39.6569 5 38V13Z" fill="#3AC2BA"/>
<g clip-path="url(#clip0_1_6248)">
<path d="M55.0687 13.1508C55.1297 13.0897 55.1297 12.9908 55.0687 12.9298C55.0076 12.8688 54.9087 12.8688 54.8477 12.9298L53.4998 14.2776L52.152 12.9298C52.091 12.8688 51.992 12.8688 51.931 12.9298C51.87 12.9908 51.87 13.0897 51.931 13.1508L53.2789 14.4986L51.931 15.8465C51.87 15.9075 51.87 16.0064 51.931 16.0674C51.992 16.1285 52.091 16.1285 52.152 16.0674L53.4998 14.7196L54.8477 16.0674C54.9087 16.1285 55.0076 16.1285 55.0687 16.0674C55.1297 16.0064 55.1297 15.9075 55.0687 15.8465L53.7208 14.4986L55.0687 13.1508Z" fill="white"/>
<path fill-rule="evenodd" clip-rule="evenodd" d="M54.4941 12.5762C54.7504 12.32 55.1659 12.32 55.4222 12.5762C55.6785 12.8325 55.6785 13.248 55.4222 13.5043M53.4998 13.5705L52.5055 12.5762C52.2493 12.32 51.8337 12.32 51.5775 12.5762C51.3212 12.8325 51.3212 13.248 51.5775 13.5043L52.5718 14.4986L51.5775 15.4929C51.3212 15.7492 51.3212 16.1647 51.5775 16.421C51.8338 16.6773 52.2493 16.6773 52.5055 16.421L53.4998 15.4267L54.4941 16.421C54.7504 16.6773 55.1659 16.6773 55.4222 16.421C55.6785 16.1647 55.6785 15.7492 55.4222 15.4929L54.4279 14.4986L55.4222 13.5043M52.0415 15.9569L52.2846 15.7139L52.0415 15.9569ZM54.4941 12.5762L53.4998 13.5705L54.4941 12.5762Z" fill="white"/>
</g>
<path d="M10 21.4092C10 20.0786 11.0786 19 12.4092 19H22.6484C23.979 19 25.0576 20.0786 25.0576 21.4092C25.0576 22.7397 23.979 23.8184 22.6484 23.8184H12.4092C11.0786 23.8184 10 22.7397 10 21.4092Z" fill="white"/>
<path d="M10 30C10 29.4477 10.4477 29 11 29H16C16.5523 29 17 29.4477 17 30C17 30.5523 16.5523 31 16 31H11C10.4477 31 10 30.5523 10 30Z" fill="white"/>
<path fill-rule="evenodd" clip-rule="evenodd" d="M40.1395 21.2638C38.9003 21.2638 37.8957 22.2684 37.8957 23.5076C37.8957 24.7469 38.9003 25.7515 40.1395 25.7515C41.3788 25.7515 42.3834 24.7469 42.3834 23.5076C42.3834 22.2684 41.3788 21.2638 40.1395 21.2638ZM39.1196 23.5076C39.1196 22.9443 39.5762 22.4877 40.1395 22.4877C40.7028 22.4877 41.1594 22.9443 41.1594 23.5076C41.1594 24.0709 40.7028 24.5276 40.1395 24.5276C39.5762 24.5276 39.1196 24.0709 39.1196 23.5076Z" fill="white"/>
<path fill-rule="evenodd" clip-rule="evenodd" d="M44.5974 18.101C43.6655 18 42.4909 18 40.9924 18H40.9185C39.42 18 38.2454 18 37.3135 18.101C36.3625 18.204 35.5919 18.418 34.934 18.896C34.5357 19.1854 34.1854 19.5357 33.896 19.934C33.418 20.5919 33.204 21.3625 33.101 22.3135C33 23.2454 33 24.42 33 25.9185V25.9924C33 27.4909 33 28.6655 33.101 29.5974C33.204 30.5485 33.418 31.319 33.896 31.9769C33.9065 31.9914 33.9171 32.0058 33.9278 32.0201C34.2109 32.4006 34.5501 32.736 34.934 33.0149C35.5919 33.4929 36.3625 33.7069 37.3135 33.81C38.2454 33.9109 39.42 33.9109 40.9185 33.9109H40.9924C42.4909 33.9109 43.6655 33.9109 44.5974 33.81C45.5485 33.7069 46.319 33.4929 46.9769 33.0149C47.3752 32.7255 47.7255 32.3752 48.0149 31.9769C48.7247 31 48.8622 29.7534 48.8986 27.9957C48.9109 27.3982 48.9109 26.7227 48.9109 25.9603V25.9185C48.9109 24.42 48.9109 23.2454 48.81 22.3135C48.7069 21.3625 48.4929 20.5919 48.0149 19.934C47.7255 19.5357 47.3752 19.1854 46.9769 18.896C46.319 18.418 45.5485 18.204 44.5974 18.101ZM35.6534 19.8862C36.0679 19.585 36.5984 19.4095 37.4453 19.3178C38.3036 19.2248 39.412 19.2239 40.9555 19.2239C42.4989 19.2239 43.6073 19.2248 44.4656 19.3178C45.3125 19.4095 45.843 19.585 46.2575 19.8862C46.5519 20.1001 46.8108 20.359 47.0247 20.6534C47.3259 21.0679 47.5014 21.5984 47.5932 22.4453C47.6862 23.3036 47.687 24.412 47.687 25.9555C47.687 26.1635 47.687 26.3639 47.6868 26.5571C47.6004 26.4838 47.5185 26.4195 47.438 26.3623C45.4217 24.9307 42.6404 25.3098 41.0809 27.2288C40.9515 27.3881 40.8275 27.5746 40.6871 27.8071L40.5852 27.7867C39.6884 27.6073 39.1392 27.4974 38.6236 27.5083C37.2459 27.5376 35.9507 28.171 35.0818 29.2406C34.8612 29.5122 34.675 29.8301 34.4503 30.2621C34.3941 30.0309 34.3506 29.7685 34.3178 29.4656C34.2248 28.6073 34.2239 27.4989 34.2239 25.9555C34.2239 24.412 34.2248 23.3036 34.3178 22.4453C34.4095 21.5984 34.585 21.0679 34.8862 20.6534C35.1001 20.359 35.359 20.1001 35.6534 19.8862ZM46.7294 27.3603C46.9314 27.5036 47.1651 27.7283 47.6685 28.2305C47.6218 29.8385 47.4601 30.6582 47.0247 31.2575C46.8108 31.5519 46.5519 31.8108 46.2575 32.0247C45.843 32.3259 45.3125 32.5014 44.4656 32.5932C43.6073 32.6862 42.4989 32.687 40.9555 32.687C40.3502 32.687 39.8118 32.6869 39.3292 32.6811L41.2211 29.3338C41.3272 29.1462 41.4193 28.9832 41.5016 28.8394C41.7622 28.3835 41.9031 28.1577 42.0307 28.0007C43.1834 26.5823 45.2391 26.3021 46.7294 27.3603ZM37.9749 32.5899C37.9663 32.6051 37.9584 32.6205 37.9513 32.6361C37.7732 32.6246 37.6049 32.6105 37.4453 32.5932C36.5984 32.5014 36.0679 32.3259 35.6534 32.0247C35.4729 31.8936 35.3058 31.7456 35.1542 31.5828C35.6126 30.6661 35.8021 30.295 36.0318 30.0123C36.674 29.2218 37.6313 28.7536 38.6496 28.732C38.9636 28.7253 39.3108 28.7825 40.045 28.9273L37.9749 32.5899Z" fill="white"/>
<defs>
<clipPath id="clip0_1_6248">
<rect width="5" height="5" fill="white" transform="translate(51 12)"/>
</clipPath>
</defs>
</svg>
