<svg width="64" height="46" viewBox="0 0 64 46" fill="none" xmlns="http://www.w3.org/2000/svg">
<mask id="mask0_1_6232" style="mask-type:alpha" maskUnits="userSpaceOnUse" x="0" y="0" width="64" height="46">
<path d="M0 5C0 2.23858 2.23858 0 5 0H59C61.7614 0 64 2.23858 64 5V41C64 43.7614 61.7614 46 59 46H5C2.23858 46 0 43.7614 0 41V5Z" fill="#6D3CC7"/>
</mask>
<g mask="url(#mask0_1_6232)">
<path d="M0 5C0 2.23858 2.23858 0 5 0H59C61.7614 0 64 2.23858 64 5V41C64 43.7614 61.7614 46 59 46H5C2.23858 46 0 43.7614 0 41V5Z" fill="#EEF0F6"/>
<path fill-rule="evenodd" clip-rule="evenodd" d="M59 2H5C3.34315 2 2 3.34315 2 5V41C2 42.6569 3.34315 44 5 44H59C60.6569 44 62 42.6569 62 41V5C62 3.34315 60.6569 2 59 2ZM5 0C2.23858 0 0 2.23858 0 5V41C0 43.7614 2.23858 46 5 46H59C61.7614 46 64 43.7614 64 41V5C64 2.23858 61.7614 0 59 0H5Z" fill="#EEF0F6"/>
<path d="M0 2.29073C0 1.02559 1.02559 0 2.29073 0H61.7093C62.9744 0 64 1.02559 64 2.29073V8H0V2.29073Z" fill="#E1DEF4"/>
<path d="M50.1918 3.97336C50.1918 4.92178 49.4211 5.69063 48.4703 5.69063C47.5195 5.69063 46.7488 4.92178 46.7488 3.97336C46.7488 3.02495 47.5195 2.2561 48.4703 2.2561C49.4211 2.2561 50.1918 3.02495 50.1918 3.97336Z" fill="white"/>
<path d="M55.2741 3.97336C55.2741 4.92178 54.5033 5.69063 53.5526 5.69063C52.6018 5.69063 51.8311 4.92178 51.8311 3.97336C51.8311 3.02495 52.6018 2.2561 53.5526 2.2561C54.5033 2.2561 55.2741 3.02495 55.2741 3.97336Z" fill="white"/>
<path d="M60.3566 3.97336C60.3566 4.92178 59.5859 5.69063 58.6351 5.69063C57.6843 5.69063 56.9136 4.92178 56.9136 3.97336C56.9136 3.02495 57.6843 2.2561 58.6351 2.2561C59.5859 2.2561 60.3566 3.02495 60.3566 3.97336Z" fill="white"/>
<path fill-rule="evenodd" clip-rule="evenodd" d="M48.7359 26.8229C49.1098 27.2294 49.0834 27.862 48.677 28.2359L37.8389 38.2069C36.5268 39.4141 34.574 39.6071 33.0509 38.68L24.9917 33.7744C24.3699 33.3959 23.5915 33.3851 22.9595 33.7463L13.9961 38.8682C13.5165 39.1423 12.9057 38.9757 12.6317 38.4961C12.3577 38.0166 12.5243 37.4058 13.0038 37.1318L21.9672 32.0098C23.2313 31.2875 24.788 31.309 26.0316 32.066L34.0908 36.9716C34.8524 37.4351 35.8287 37.3387 36.4848 36.7351L47.3229 26.7641C47.7293 26.3901 48.3619 26.4165 48.7359 26.8229Z" fill="#3AC2BA"/>
<g filter="url(#filter0_d_1_6232)">
<path d="M39.4336 37.7285C39.4336 39.9377 37.6427 41.7285 35.4336 41.7285C33.2245 41.7285 31.4336 39.9377 31.4336 37.7285C31.4336 35.5194 33.2245 33.7285 35.4336 33.7285C37.6427 33.7285 39.4336 35.5194 39.4336 37.7285Z" fill="#3AC2BA"/>
</g>
</g>
<path d="M20.9354 24.7458C19.6814 24.7458 18.6288 24.478 17.7774 23.9426C16.9376 23.4072 16.3451 22.6622 16 21.7077L18.6403 20.1538C19.089 21.2363 19.8828 21.7776 21.0217 21.7776C21.9651 21.7776 22.4368 21.504 22.4368 20.957C22.4368 20.6078 22.1664 20.3168 21.6257 20.084C21.4416 20.0141 20.9354 19.857 20.1071 19.6125C18.9336 19.275 18.042 18.8036 17.4323 18.1983C16.8226 17.593 16.5177 16.7898 16.5177 15.7888C16.5177 14.6597 16.9146 13.746 17.7084 13.0476C18.5252 12.3492 19.5261 12 20.7111 12C21.7235 12 22.6208 12.2444 23.4031 12.7333C24.1854 13.2106 24.7837 13.8973 25.1978 14.7936L22.6093 16.3301C22.2297 15.4222 21.6027 14.9682 20.7283 14.9682C20.3717 14.9682 20.0956 15.0439 19.9 15.1952C19.7044 15.3349 19.6067 15.5269 19.6067 15.7713C19.6067 16.0391 19.7447 16.266 20.0208 16.4523C20.3084 16.6385 20.8606 16.8539 21.6775 17.0983C22.2872 17.2845 22.7589 17.4475 23.0925 17.5872C23.4722 17.7501 23.8633 17.9713 24.266 18.2507C25.1058 18.8094 25.5257 19.6998 25.5257 20.922C25.5257 22.121 25.1058 23.058 24.266 23.7331C23.4261 24.4082 22.316 24.7458 20.9354 24.7458Z" fill="#3AC2BA"/>
<path d="M29.7377 19.7522V21.5506H34.4143V24.4839H26.6487V12.2619H34.328V15.1777H29.7377V16.8713H33.8966V19.7522H29.7377Z" fill="#3AC2BA"/>
<path d="M46.1535 22.9125C44.9226 24.1347 43.427 24.7458 41.6668 24.7458C39.8836 24.7458 38.3823 24.1347 37.1628 22.9125C35.9433 21.6786 35.3336 20.1654 35.3336 18.3729C35.3336 16.5803 35.9433 15.073 37.1628 13.8508C38.3823 12.6169 39.8836 12 41.6668 12C43.4385 12 44.9341 12.6169 46.1535 13.8508C47.3845 15.073 48 16.5803 48 18.3729C48 20.1538 47.3845 21.667 46.1535 22.9125ZM39.3371 20.7649C39.9699 21.3818 40.7464 21.6903 41.6668 21.6903C42.5871 21.6903 43.3637 21.3818 43.9964 20.7649C44.6177 20.1363 44.9283 19.339 44.9283 18.3729C44.9283 17.3951 44.6177 16.6036 43.9964 15.9983C43.3752 15.3698 42.5986 15.0555 41.6668 15.0555C40.7349 15.0555 39.9584 15.3698 39.3371 15.9983C38.7159 16.6036 38.4053 17.3951 38.4053 18.3729C38.4053 19.339 38.7159 20.1363 39.3371 20.7649Z" fill="#3AC2BA"/>
<defs>
<filter id="filter0_d_1_6232" x="27.3711" y="29.666" width="16.125" height="16.125" filterUnits="userSpaceOnUse" color-interpolation-filters="sRGB">
<feFlood flood-opacity="0" result="BackgroundImageFix"/>
<feColorMatrix in="SourceAlpha" type="matrix" values="0 0 0 0 0 0 0 0 0 0 0 0 0 0 0 0 0 0 127 0" result="hardAlpha"/>
<feOffset/>
<feGaussianBlur stdDeviation="2.03125"/>
<feComposite in2="hardAlpha" operator="out"/>
<feColorMatrix type="matrix" values="0 0 0 0 1 0 0 0 0 1 0 0 0 0 1 0 0 0 1 0"/>
<feBlend mode="normal" in2="BackgroundImageFix" result="effect1_dropShadow_1_6232"/>
<feBlend mode="normal" in="SourceGraphic" in2="effect1_dropShadow_1_6232" result="shape"/>
</filter>
</defs>
</svg>
