<svg width="390" height="281" viewBox="0 0 390 281" fill="none" xmlns="http://www.w3.org/2000/svg">
	<mask id="mask0_1_5818" style="mask-type:alpha" maskUnits="userSpaceOnUse" x="0" y="0" width="390"
		height="281">
		<path
			d="M0 13.9937C0 6.2652 6.26519 0 13.9937 0H376.006C383.735 0 390 6.26519 390 13.9937V267.006C390 274.735 383.735 281 376.006 281H13.9937C6.26522 281 0 274.735 0 267.006V13.9937Z"
			fill="#6D3CC7" />
	</mask>
	<g mask="url(#mask0_1_5818)">
		<path
			d="M0 13.9937C0 6.2652 6.26519 0 13.9937 0H376.006C383.735 0 390 6.26519 390 13.9937V267.006C390 274.735 383.735 281 376.006 281H13.9937C6.26522 281 0 274.735 0 267.006V13.9937Z"
			fill="#EEF0F6" />
		<path fill-rule="evenodd" clip-rule="evenodd"
			d="M376.006 4.94382H13.9937C8.99559 4.94382 4.94382 8.99559 4.94382 13.9937V267.006C4.94382 272.004 8.9956 276.056 13.9937 276.056H376.006C381.004 276.056 385.056 272.004 385.056 267.006V13.9937C385.056 8.9956 381.004 4.94382 376.006 4.94382ZM13.9937 0C6.26519 0 0 6.2652 0 13.9937V267.006C0 274.735 6.26522 281 13.9937 281H376.006C383.735 281 390 274.735 390 267.006V13.9937C390 6.26519 383.735 0 376.006 0H13.9937Z"
			fill="#E1DEF4" />
		<path
			d="M0 13.9937C0 6.26519 6.26519 0 13.9937 0H376.006C383.735 0 390 6.26519 390 13.9937V29H0V13.9937Z"
			fill="#E1DEF4" />
		<path
			d="M343 14.4998C343 17.5373 340.538 19.9998 337.5 19.9998C334.462 19.9998 332 17.5373 332 14.4998C332 11.4622 334.462 8.99976 337.5 8.99976C340.538 8.99976 343 11.4622 343 14.4998Z"
			fill="white" />
		<path
			d="M360 14.4998C360 17.5373 357.538 19.9998 354.5 19.9998C351.462 19.9998 349 17.5373 349 14.4998C349 11.4622 351.462 8.99976 354.5 8.99976C357.538 8.99976 360 11.4622 360 14.4998Z"
			fill="white" />
		<path
			d="M377 14.4998C377 17.5373 374.538 19.9998 371.5 19.9998C368.462 19.9998 366 17.5373 366 14.4998C366 11.4622 368.462 8.99976 371.5 8.99976C374.538 8.99976 377 11.4622 377 14.4998Z"
			fill="white" />
	</g>
	<path
		d="M19 238.5C19 233.806 22.8056 230 27.5 230H302.5C307.194 230 311 233.806 311 238.5C311 243.194 307.194 247 302.5 247H27.5C22.8056 247 19 243.194 19 238.5Z"
		fill="white" />
	<path
		d="M330 238.5C330 233.806 333.806 230 338.5 230H361.5C366.194 230 370 233.806 370 238.5C370 243.194 366.194 247 361.5 247H338.5C333.806 247 330 243.194 330 238.5Z"
		fill="white" />
	<path
		d="M20 63C20 57.4772 24.4772 53 30 53H360C365.523 53 370 57.4772 370 63V202C370 207.523 365.523 212 360 212H30C24.4772 212 20 207.523 20 202V63Z"
		fill="#3AC2BA" />
	<path
		d="M46 195C46 193.895 46.8954 193 48 193H342C343.105 193 344 193.895 344 195C344 196.105 343.105 197 342 197H48C46.8954 197 46 196.105 46 195Z"
		fill="white" />
	<path
		d="M152 195C152 193.895 152.895 193 154 193H342C343.105 193 344 193.895 344 195C344 196.105 343.105 197 342 197H154C152.895 197 152 196.105 152 195Z"
		fill="#E9E9E9" />
	<path
		d="M150 192C150 190.895 150.895 190 152 190C153.105 190 154 190.895 154 192V198C154 199.105 153.105 200 152 200C150.895 200 150 199.105 150 198V192Z"
		fill="white" />
	<path
		d="M210 133C210 141.284 203.284 148 195 148C186.716 148 180 141.284 180 133C180 124.716 186.716 118 195 118C203.284 118 210 124.716 210 133Z"
		fill="#2FA59E" />
	<path
		d="M200.126 131.557C201.073 132.286 201.073 133.714 200.126 134.443L193.681 139.404C192.484 140.325 190.75 139.472 190.75 137.961L190.75 128.039C190.75 126.528 192.484 125.675 193.681 126.596L200.126 131.557Z"
		fill="white" />
</svg>