<svg width="64" height="46" viewBox="0 0 64 46" fill="none" xmlns="http://www.w3.org/2000/svg">
<mask id="mask0_1_6336" style="mask-type:alpha" maskUnits="userSpaceOnUse" x="0" y="0" width="64" height="46">
<path d="M0 5C0 2.23858 2.23858 0 5 0H59C61.7614 0 64 2.23858 64 5V41C64 43.7614 61.7614 46 59 46H5C2.23858 46 0 43.7614 0 41V5Z" fill="#6D3CC7"/>
</mask>
<g mask="url(#mask0_1_6336)">
<path d="M0 5C0 2.23858 2.23858 0 5 0H59C61.7614 0 64 2.23858 64 5V41C64 43.7614 61.7614 46 59 46H5C2.23858 46 0 43.7614 0 41V5Z" fill="#EEF0F6"/>
<path fill-rule="evenodd" clip-rule="evenodd" d="M59 2H5C3.34315 2 2 3.34315 2 5V41C2 42.6569 3.34315 44 5 44H59C60.6569 44 62 42.6569 62 41V5C62 3.34315 60.6569 2 59 2ZM5 0C2.23858 0 0 2.23858 0 5V41C0 43.7614 2.23858 46 5 46H59C61.7614 46 64 43.7614 64 41V5C64 2.23858 61.7614 0 59 0H5Z" fill="#EEF0F6"/>
<path d="M0 2.29073C0 1.02559 1.02559 0 2.29073 0H61.7093C62.9744 0 64 1.02559 64 2.29073V8H0V2.29073Z" fill="#E1DEF4"/>
<path d="M50.1918 3.97336C50.1918 4.92178 49.4211 5.69063 48.4703 5.69063C47.5195 5.69063 46.7488 4.92178 46.7488 3.97336C46.7488 3.02495 47.5195 2.2561 48.4703 2.2561C49.4211 2.2561 50.1918 3.02495 50.1918 3.97336Z" fill="white"/>
<path d="M55.2741 3.97336C55.2741 4.92178 54.5033 5.69063 53.5526 5.69063C52.6018 5.69063 51.8311 4.92178 51.8311 3.97336C51.8311 3.02495 52.6018 2.2561 53.5526 2.2561C54.5033 2.2561 55.2741 3.02495 55.2741 3.97336Z" fill="white"/>
<path d="M60.3566 3.97336C60.3566 4.92178 59.5859 5.69063 58.6351 5.69063C57.6843 5.69063 56.9136 4.92178 56.9136 3.97336C56.9136 3.02495 57.6843 2.2561 58.6351 2.2561C59.5859 2.2561 60.3566 3.02495 60.3566 3.97336Z" fill="white"/>
</g>
<path d="M5 14C5 12.3431 6.34315 11 8 11H56C57.6569 11 59 12.3431 59 14V16C59 17.6569 57.6569 19 56 19H8C6.34315 19 5 17.6569 5 16V14Z" fill="#3AC2BA"/>
<path d="M47 25C47 23.3431 48.3431 22 50 22H56C57.6569 22 59 23.3431 59 25V38C59 39.6569 57.6569 41 56 41H50C48.3431 41 47 39.6569 47 38V25Z" fill="#3AC2BA"/>
<path d="M5 23C5 22.4477 5.44772 22 6 22H39C39.5523 22 40 22.4477 40 23C40 23.5523 39.5523 24 39 24H6C5.44772 24 5 23.5523 5 23Z" fill="white"/>
<path d="M5 28C5 27.4477 5.44772 27 6 27H30C30.5523 27 31 27.4477 31 28C31 28.5523 30.5523 29 30 29H6C5.44772 29 5 28.5523 5 28Z" fill="white"/>
<path d="M5 38C5 37.4477 5.44772 37 6 37H17C17.5523 37 18 37.4477 18 38C18 38.5523 17.5523 39 17 39H6C5.44772 39 5 38.5523 5 38Z" fill="white"/>
<path d="M5 33C5 32.4477 5.44772 32 6 32H15C15.5523 32 16 32.4477 16 33C16 33.5523 15.5523 34 15 34H6C5.44771 34 5 33.5523 5 33Z" fill="white"/>
<path d="M18 33C18 32.4477 18.4477 32 19 32H34C34.5523 32 35 32.4477 35 33C35 33.5523 34.5523 34 34 34H19C18.4477 34 18 33.5523 18 33Z" fill="white"/>
</svg>
