<svg width="64" height="46" viewBox="0 0 64 46" fill="none" xmlns="http://www.w3.org/2000/svg">
<mask id="mask0_1_6271" style="mask-type:alpha" maskUnits="userSpaceOnUse" x="0" y="0" width="64" height="46">
<path d="M0 5C0 2.23858 2.23858 0 5 0H59C61.7614 0 64 2.23858 64 5V41C64 43.7614 61.7614 46 59 46H5C2.23858 46 0 43.7614 0 41V5Z" fill="#6D3CC7"/>
</mask>
<g mask="url(#mask0_1_6271)">
<path d="M0 5C0 2.23858 2.23858 0 5 0H59C61.7614 0 64 2.23858 64 5V41C64 43.7614 61.7614 46 59 46H5C2.23858 46 0 43.7614 0 41V5Z" fill="#EEF0F6"/>
<path fill-rule="evenodd" clip-rule="evenodd" d="M59 2H5C3.34315 2 2 3.34315 2 5V41C2 42.6569 3.34315 44 5 44H59C60.6569 44 62 42.6569 62 41V5C62 3.34315 60.6569 2 59 2ZM5 0C2.23858 0 0 2.23858 0 5V41C0 43.7614 2.23858 46 5 46H59C61.7614 46 64 43.7614 64 41V5C64 2.23858 61.7614 0 59 0H5Z" fill="#EEF0F6"/>
<path d="M0 2.29073C0 1.02559 1.02559 0 2.29073 0H61.7093C62.9744 0 64 1.02559 64 2.29073V8H0V2.29073Z" fill="#E1DEF4"/>
<path d="M50.1918 3.97336C50.1918 4.92178 49.4211 5.69063 48.4703 5.69063C47.5195 5.69063 46.7488 4.92178 46.7488 3.97336C46.7488 3.02495 47.5195 2.2561 48.4703 2.2561C49.4211 2.2561 50.1918 3.02495 50.1918 3.97336Z" fill="white"/>
<path d="M55.2741 3.97336C55.2741 4.92178 54.5033 5.69063 53.5526 5.69063C52.6018 5.69063 51.8311 4.92178 51.8311 3.97336C51.8311 3.02495 52.6018 2.2561 53.5526 2.2561C54.5033 2.2561 55.2741 3.02495 55.2741 3.97336Z" fill="white"/>
<path d="M60.3566 3.97336C60.3566 4.92178 59.5859 5.69063 58.6351 5.69063C57.6843 5.69063 56.9136 4.92178 56.9136 3.97336C56.9136 3.02495 57.6843 2.2561 58.6351 2.2561C59.5859 2.2561 60.3566 3.02495 60.3566 3.97336Z" fill="white"/>
</g>
<path d="M5 14C5 12.3431 6.34315 11 8 11H20C21.6569 11 23 12.3431 23 14V26C23 27.6569 21.6569 29 20 29H8C6.34315 29 5 27.6569 5 26V14Z" fill="#3AC2BA"/>
<path d="M11 16C11 14.3431 12.3431 13 14 13C15.6569 13 17 14.3431 17 16C17 17.6569 15.6569 19 14 19C12.3431 19 11 17.6569 11 16Z" fill="white"/>
<path d="M8 23C8 22.4477 8.44772 22 9 22H19C19.5523 22 20 22.4477 20 23C20 23.5523 19.5523 24 19 24H9C8.44772 24 8 23.5523 8 23Z" fill="white"/>
<path d="M8 26C8 25.4477 8.44772 25 9 25H15C15.5523 25 16 25.4477 16 26C16 26.5523 15.5523 27 15 27H9C8.44772 27 8 26.5523 8 26Z" fill="white"/>
<path d="M27 14C27 12.3431 28.3431 11 30 11H42C43.6569 11 45 12.3431 45 14V26C45 27.6569 43.6569 29 42 29H30C28.3431 29 27 27.6569 27 26V14Z" fill="#3AC2BA"/>
<path d="M33 16C33 14.3431 34.3431 13 36 13C37.6569 13 39 14.3431 39 16C39 17.6569 37.6569 19 36 19C34.3431 19 33 17.6569 33 16Z" fill="white"/>
<path d="M30 23C30 22.4477 30.4477 22 31 22H41C41.5523 22 42 22.4477 42 23C42 23.5523 41.5523 24 41 24H31C30.4477 24 30 23.5523 30 23Z" fill="white"/>
<path d="M30 26C30 25.4477 30.4477 25 31 25H37C37.5523 25 38 25.4477 38 26C38 26.5523 37.5523 27 37 27H31C30.4477 27 30 26.5523 30 26Z" fill="white"/>
<path d="M48 14C48 12.3431 49.3431 11 51 11H56C57.6569 11 59 12.3431 59 14V38C59 39.6569 57.6569 41 56 41H51C49.3431 41 48 39.6569 48 38V14Z" fill="white"/>
<path d="M5 36.5C5 35.1193 6.11929 34 7.5 34C8.88071 34 10 35.1193 10 36.5V38.5C10 39.8807 8.88071 41 7.5 41C6.11929 41 5 39.8807 5 38.5V36.5Z" fill="white"/>
<path d="M13 35C13 35.5523 13.4477 36 14 36H25C25.5523 36 26 35.5523 26 35C26 34.4477 25.5523 34 25 34H14C13.4477 34 13 34.4477 13 35Z" fill="white"/>
<path d="M13 40C13 40.5523 13.4477 41 14 41H23C23.5523 41 24 40.5523 24 40C24 39.4477 23.5523 39 23 39H14C13.4477 39 13 39.4477 13 40Z" fill="white"/>
<path d="M27 40C27 40.5523 27.4477 41 28 41H42C42.5523 41 43 40.5523 43 40C43 39.4477 42.5523 39 42 39H28C27.4477 39 27 39.4477 27 40Z" fill="white"/>
</svg>
