<svg width="64" height="46" viewBox="0 0 64 46" fill="none" xmlns="http://www.w3.org/2000/svg">
<mask id="mask0_1_6298" style="mask-type:alpha" maskUnits="userSpaceOnUse" x="0" y="0" width="64" height="46">
<path d="M0 5C0 2.23858 2.23858 0 5 0H59C61.7614 0 64 2.23858 64 5V41C64 43.7614 61.7614 46 59 46H5C2.23858 46 0 43.7614 0 41V5Z" fill="#6D3CC7"/>
</mask>
<g mask="url(#mask0_1_6298)">
<path d="M0 5C0 2.23858 2.23858 0 5 0H59C61.7614 0 64 2.23858 64 5V41C64 43.7614 61.7614 46 59 46H5C2.23858 46 0 43.7614 0 41V5Z" fill="#EEF0F6"/>
<path fill-rule="evenodd" clip-rule="evenodd" d="M59 2H5C3.34315 2 2 3.34315 2 5V41C2 42.6569 3.34315 44 5 44H59C60.6569 44 62 42.6569 62 41V5C62 3.34315 60.6569 2 59 2ZM5 0C2.23858 0 0 2.23858 0 5V41C0 43.7614 2.23858 46 5 46H59C61.7614 46 64 43.7614 64 41V5C64 2.23858 61.7614 0 59 0H5Z" fill="#EEF0F6"/>
<path d="M0 2.29073C0 1.02559 1.02559 0 2.29073 0H61.7093C62.9744 0 64 1.02559 64 2.29073V8H0V2.29073Z" fill="#E1DEF4"/>
<path d="M50.1918 3.97336C50.1918 4.92178 49.4211 5.69063 48.4703 5.69063C47.5195 5.69063 46.7488 4.92178 46.7488 3.97336C46.7488 3.02495 47.5195 2.2561 48.4703 2.2561C49.4211 2.2561 50.1918 3.02495 50.1918 3.97336Z" fill="white"/>
<path d="M55.2741 3.97336C55.2741 4.92178 54.5033 5.69063 53.5526 5.69063C52.6018 5.69063 51.8311 4.92178 51.8311 3.97336C51.8311 3.02495 52.6018 2.2561 53.5526 2.2561C54.5033 2.2561 55.2741 3.02495 55.2741 3.97336Z" fill="white"/>
<path d="M60.3566 3.97336C60.3566 4.92178 59.5859 5.69063 58.6351 5.69063C57.6843 5.69063 56.9136 4.92178 56.9136 3.97336C56.9136 3.02495 57.6843 2.2561 58.6351 2.2561C59.5859 2.2561 60.3566 3.02495 60.3566 3.97336Z" fill="white"/>
</g>
<path d="M9 35C9 34.4477 9.44772 34 10 34H54C54.5523 34 55 34.4477 55 35C55 35.5523 54.5523 36 54 36H10C9.44772 36 9 35.5523 9 35Z" fill="#3AC2BA"/>
<path d="M20 35C20 34.4477 20.4477 34 21 34H54C54.5523 34 55 34.4477 55 35C55 35.5523 54.5523 36 54 36H21C20.4477 36 20 35.5523 20 35Z" fill="white"/>
<path d="M19 33C19 32.4477 19.4477 32 20 32C20.5523 32 21 32.4477 21 33V37C21 37.5523 20.5523 38 20 38C19.4477 38 19 37.5523 19 37V33Z" fill="#3AC2BA"/>
<path d="M39.1855 23.5C39.1855 27.6421 35.8277 31 31.6855 31C27.5434 31 24.1855 27.6421 24.1855 23.5C24.1855 19.3579 27.5434 16 31.6855 16C35.8277 16 39.1855 19.3579 39.1855 23.5Z" fill="#3AC2BA"/>
<path d="M33.9753 22.5688C34.5867 23.0394 34.5867 23.9614 33.9753 24.432L31.4533 26.3735C30.6802 26.9686 29.5605 26.4175 29.5605 25.4419L29.5605 21.5589C29.5605 20.5833 30.6802 20.0322 31.4533 20.6273L33.9753 22.5688Z" fill="white"/>
</svg>
