<svg width="57" height="56" viewBox="0 0 57 56" fill="none" xmlns="http://www.w3.org/2000/svg">
<path d="M40.5737 15.9214H34.6698L28.1553 34.8204L21.4032 15.9214H15.4654V40.0796H19.4692V21.452L26.357 40.0796H29.8178L36.536 21.452V40.0796H40.5737V15.9214Z" fill="#828282"/>
<path fill-rule="evenodd" clip-rule="evenodd" d="M28.0196 51.3201C40.8986 51.3201 51.3391 40.8795 51.3391 28.0005C51.3391 15.1215 40.8986 4.68098 28.0196 4.68098C15.1405 4.68098 4.70002 15.1215 4.70002 28.0005C4.70002 40.8795 15.1405 51.3201 28.0196 51.3201ZM28.0196 56.0001C43.4833 56.0001 56.0191 43.4642 56.0191 28.0005C56.0191 12.5368 43.4833 0.000976562 28.0196 0.000976562C12.5558 0.000976562 0.0200195 12.5368 0.0200195 28.0005C0.0200195 43.4642 12.5558 56.0001 28.0196 56.0001Z" fill="#713EE6"/>
</svg>
