<?xml version="1.0" standalone="no"?>
<!DOCTYPE svg PUBLIC "-//W3C//DTD SVG 20010904//EN"
 "http://www.w3.org/TR/2001/REC-SVG-20010904/DTD/svg10.dtd">
<svg version="1.0" xmlns="http://www.w3.org/2000/svg"
 width="912.000000pt" height="912.000000pt" viewBox="0 0 912.000000 912.000000"
 preserveAspectRatio="xMidYMid meet">
<metadata>
Created by potrace 1.14, written by Peter Selinger 2001-2017
</metadata>
<g transform="translate(0.000000,912.000000) scale(0.100000,-0.100000)"
fill="#000000" stroke="none">
<path d="M4238 9035 c-1 -1 -41 -5 -88 -9 -47 -3 -112 -9 -145 -12 -33 -4 -70
-7 -82 -7 -13 -1 -23 -3 -23 -6 0 -4 -15 -6 -33 -7 -17 0 -50 -4 -72 -7 -22
-4 -56 -9 -75 -13 -35 -6 -221 -42 -251 -49 -227 -52 -579 -168 -746 -246 -34
-16 -65 -29 -68 -29 -25 0 -422 -210 -513 -271 -24 -16 -46 -29 -49 -29 -3 0
-21 -11 -39 -25 -18 -14 -37 -25 -42 -25 -6 0 -12 -3 -14 -7 -1 -5 -23 -21
-47 -37 -25 -16 -50 -33 -55 -38 -6 -4 -51 -38 -101 -75 -49 -37 -92 -69 -95
-73 -3 -3 -25 -21 -50 -40 -25 -19 -58 -46 -75 -61 -16 -15 -54 -49 -84 -75
-201 -179 -437 -438 -601 -659 -41 -55 -78 -101 -82 -103 -4 -2 -8 -8 -8 -13
0 -4 -28 -50 -62 -101 -34 -51 -61 -95 -59 -97 1 -2 -2 -7 -7 -10 -5 -3 -19
-24 -31 -46 -12 -22 -31 -56 -43 -75 -40 -65 -148 -274 -148 -286 0 -6 -7 -17
-15 -24 -8 -6 -14 -15 -13 -18 1 -4 -11 -34 -26 -67 -63 -136 -171 -424 -202
-535 -42 -157 -84 -321 -89 -349 -3 -20 -10 -52 -15 -71 -5 -20 -12 -51 -14
-71 -3 -19 -8 -47 -11 -61 -4 -15 -8 -44 -10 -65 -2 -21 -4 -40 -5 -43 -2 -3
-2 -9 -1 -13 1 -4 -3 -16 -9 -27 -7 -13 -7 -21 0 -25 7 -4 7 -12 2 -18 -5 -7
-10 -32 -11 -56 -2 -24 -5 -54 -7 -65 -17 -89 -23 -528 -10 -731 10 -159 20
-260 26 -260 0 0 3 -22 6 -50 2 -27 6 -61 8 -75 10 -59 28 -162 41 -227 3 -13
7 -35 10 -50 3 -16 9 -45 15 -65 5 -21 14 -55 20 -75 65 -246 118 -408 187
-577 71 -173 161 -364 184 -393 6 -7 8 -13 4 -13 -4 0 -3 -6 3 -13 5 -6 19
-28 29 -47 11 -19 34 -61 51 -92 204 -366 535 -776 882 -1093 70 -63 246 -208
325 -266 33 -24 62 -47 63 -51 2 -5 10 -8 17 -8 7 0 15 -3 17 -7 5 -12 95 -73
106 -73 6 0 12 -4 14 -8 11 -29 408 -251 603 -339 97 -43 185 -81 205 -88 3
-1 18 -7 33 -13 16 -7 31 -12 34 -12 3 0 19 -6 36 -14 30 -13 271 -93 306
-101 9 -3 59 -16 111 -30 52 -14 109 -28 125 -31 45 -9 60 -12 60 -14 0 -1 13
-3 30 -5 16 -2 50 -9 75 -14 50 -11 111 -22 153 -27 15 -2 39 -6 55 -9 15 -3
52 -7 82 -11 30 -3 73 -7 95 -10 129 -15 206 -18 445 -18 225 -1 340 4 480 19
14 2 57 6 95 10 62 6 338 54 405 70 14 4 34 8 45 9 11 2 22 5 25 6 3 1 10 3
15 4 6 1 29 8 53 14 24 7 56 15 72 17 16 2 35 7 42 11 7 5 21 10 31 11 28 5
304 98 390 132 128 51 312 134 318 144 3 5 8 8 10 7 8 -3 119 51 124 61 4 5
11 7 16 4 5 -4 9 -1 9 4 0 6 5 11 11 11 6 0 54 26 107 58 54 31 102 59 107 62
28 14 101 64 107 74 4 6 8 7 8 3 0 -4 25 11 55 33 30 22 58 40 64 40 5 0 11 7
15 15 3 8 12 15 21 15 8 0 15 4 15 8 0 4 13 16 30 25 16 10 35 23 42 30 7 7
42 35 78 62 36 28 70 55 76 60 6 6 37 33 70 60 147 126 302 279 449 446 26 29
90 107 193 235 13 16 36 47 50 69 15 22 32 45 38 52 6 6 26 35 45 65 18 29 36
55 39 58 14 14 60 88 60 98 0 6 6 15 13 19 7 4 18 19 25 33 16 34 43 80 64
109 9 13 15 28 12 33 -3 4 -1 8 4 8 10 0 154 287 197 390 14 36 36 85 47 110
11 25 21 50 22 55 1 6 4 15 8 20 3 6 10 26 16 45 6 19 22 69 37 110 46 127
120 395 141 508 6 31 12 63 18 92 3 13 8 40 11 60 3 20 8 47 10 60 3 14 7 41
10 60 2 19 7 58 11 85 4 28 8 64 10 80 10 105 17 189 19 250 2 39 4 72 5 75 2
6 2 355 0 355 -1 0 -3 27 -5 60 -3 82 -15 229 -19 252 -2 10 -7 49 -11 88 -4
38 -8 72 -10 75 -1 3 -6 28 -10 55 -4 28 -9 59 -10 70 -2 11 -4 20 -5 20 -1 0
-3 14 -5 30 -1 17 -3 30 -5 30 -1 0 -4 14 -6 30 -3 17 -14 66 -25 110 -11 44
-22 91 -25 105 -3 14 -7 32 -10 40 -3 8 -8 25 -10 38 -3 12 -16 59 -31 105
-15 45 -27 84 -28 87 -2 16 -61 186 -65 190 -3 3 -14 30 -24 60 -11 30 -30 77
-43 104 -12 28 -23 53 -23 57 0 13 -141 300 -179 364 -20 33 -36 62 -36 65 -2
7 -36 65 -72 122 -18 27 -33 53 -33 57 0 4 -9 16 -20 26 -11 10 -20 22 -20 27
0 4 -12 26 -27 47 -16 21 -35 49 -43 61 -52 78 -246 326 -289 371 -9 9 -43 46
-76 84 -86 98 -249 258 -366 360 -99 86 -210 175 -218 175 -5 0 -11 4 -13 9
-1 5 -48 41 -103 80 -55 39 -104 75 -110 79 -31 24 -284 177 -370 222 -55 29
-104 57 -109 61 -6 5 -18 9 -28 9 -10 0 -18 4 -18 8 0 4 -12 13 -27 19 -16 6
-75 32 -133 58 -125 56 -152 67 -165 71 -5 1 -35 12 -65 24 -59 23 -284 99
-313 105 -9 2 -22 7 -28 10 -5 4 -20 8 -32 10 -12 2 -49 11 -82 20 -56 16 -69
19 -112 29 -170 40 -400 76 -653 102 -52 6 -607 14 -612 9z m512 -754 c59 -2
280 -28 330 -37 38 -8 62 -12 102 -17 21 -3 41 -8 46 -11 5 -3 25 -7 43 -10
160 -19 711 -210 857 -296 18 -11 40 -20 48 -20 8 0 14 -4 14 -9 0 -5 17 -16
38 -25 42 -17 134 -68 142 -77 3 -3 20 -14 39 -23 18 -10 62 -38 98 -62 35
-24 68 -44 74 -44 5 0 9 -4 9 -10 0 -5 7 -10 15 -10 8 0 15 -3 15 -8 0 -4 18
-18 40 -32 22 -14 40 -28 40 -32 0 -4 8 -9 18 -12 9 -3 28 -16 42 -28 14 -13
61 -52 105 -88 157 -128 346 -315 474 -469 29 -35 59 -71 67 -78 7 -8 21 -27
31 -43 9 -17 21 -30 25 -30 4 0 8 -7 8 -15 0 -8 4 -15 8 -15 4 0 19 -18 32
-40 14 -22 28 -40 33 -40 4 0 7 -6 7 -14 0 -8 3 -16 8 -18 9 -4 119 -175 153
-238 13 -25 27 -47 30 -50 3 -3 15 -25 28 -50 12 -25 31 -60 41 -78 11 -18 20
-34 20 -37 1 -3 19 -44 41 -92 57 -124 154 -373 164 -418 1 -5 13 -48 28 -95
28 -93 69 -261 86 -355 6 -33 13 -71 16 -85 2 -14 7 -43 10 -65 6 -38 9 -66
19 -165 33 -301 20 -717 -30 -990 -2 -14 -7 -41 -10 -60 -6 -41 -49 -236 -54
-250 -1 -3 -2 -8 -1 -12 0 -3 -8 -30 -18 -60 -10 -29 -19 -57 -20 -63 -1 -12
-20 -73 -28 -95 -3 -8 -7 -20 -8 -26 -5 -24 -68 -191 -91 -241 -13 -29 -26
-64 -30 -78 -3 -14 -11 -25 -17 -25 -6 0 -8 -3 -4 -6 3 -4 -8 -34 -26 -68 -17
-33 -32 -63 -32 -66 -1 -5 -24 -50 -55 -104 -9 -17 -32 -58 -50 -91 -18 -33
-41 -72 -51 -87 -11 -14 -19 -29 -19 -32 0 -16 -239 -345 -310 -426 -181 -207
-330 -354 -495 -489 -200 -162 -430 -313 -643 -421 -64 -33 -121 -64 -127 -68
-5 -4 -12 -9 -15 -9 -42 -10 -60 -17 -60 -24 0 -5 -6 -9 -13 -9 -7 0 -46 -14
-87 -31 -80 -34 -225 -88 -250 -94 -8 -2 -27 -8 -43 -14 -15 -6 -38 -13 -50
-16 -12 -2 -62 -16 -112 -30 -127 -35 -318 -74 -450 -90 -27 -4 -60 -8 -73
-10 -170 -28 -720 -27 -882 0 -14 3 -49 7 -78 11 -29 3 -63 8 -75 10 -12 3
-33 7 -47 9 -32 5 -78 14 -110 21 -14 3 -36 8 -50 11 -24 4 -85 18 -125 29
-11 3 -27 7 -35 9 -8 2 -15 4 -15 5 0 1 -11 4 -25 6 -47 8 -268 82 -345 114
-11 5 -69 30 -130 55 -137 57 -327 156 -465 241 -58 36 -114 70 -124 77 -24
15 -42 28 -61 44 -7 7 -16 13 -20 13 -6 0 -140 100 -195 146 -205 171 -437
401 -542 539 -12 17 -25 32 -29 35 -11 9 -179 238 -179 245 0 6 -11 20 -38 50
-7 8 -11 15 -7 15 3 0 -3 10 -15 22 -11 12 -20 25 -20 29 0 4 -22 44 -49 88
-27 44 -47 81 -45 84 3 2 -2 10 -11 17 -8 7 -15 19 -15 26 0 8 -4 14 -10 14
-5 0 -10 6 -10 13 0 18 -24 67 -32 67 -5 0 -8 7 -8 15 0 8 -8 29 -18 47 -33
60 -131 302 -172 429 -45 138 -103 354 -115 434 -7 39 -13 70 -15 70 -1 0 -3
14 -5 30 -2 17 -6 41 -8 55 -3 14 -9 52 -12 85 -4 33 -9 71 -11 85 -24 172
-23 705 1 831 2 10 7 49 10 86 4 37 9 71 11 74 2 4 6 24 10 45 8 56 11 76 18
104 3 14 8 36 10 50 7 36 12 58 31 130 9 36 18 70 19 75 1 6 10 37 20 70 10
33 19 65 21 70 1 6 4 17 7 25 3 8 22 62 43 120 52 147 79 208 178 410 102 205
257 451 384 607 24 29 43 55 43 58 0 3 8 13 18 23 9 10 37 42 62 72 57 68 309
321 379 379 30 25 59 51 67 58 7 7 15 13 18 13 3 0 24 18 48 40 24 22 48 40
55 40 6 0 13 4 15 8 9 22 373 262 397 262 5 0 11 3 13 8 1 4 26 18 53 32 28
14 53 29 56 33 3 5 12 9 20 11 8 1 43 17 79 36 36 19 70 35 75 36 6 1 56 23
113 48 56 25 106 46 110 47 4 1 18 6 32 11 14 6 30 11 35 12 6 2 17 6 25 9 26
11 214 68 240 73 14 3 32 7 40 11 8 3 20 7 25 8 6 2 63 14 126 28 64 15 131
29 150 31 19 3 43 7 54 9 11 3 47 8 80 12 33 4 71 9 85 11 14 2 61 6 105 10
44 3 81 7 83 9 3 3 442 -1 512 -4z"/>
<path d="M2479 6490 c-1 -3 -2 -872 -3 -1932 l-1 -1928 20 -1 c154 -6 615 -2
618 6 2 6 3 670 3 1478 -1 807 1 1467 4 1467 5 0 59 -136 66 -165 3 -13 63
-173 74 -200 5 -11 20 -54 35 -95 15 -41 30 -84 35 -95 5 -11 25 -65 45 -120
20 -55 46 -125 58 -155 12 -30 22 -57 23 -60 0 -3 4 -14 8 -25 4 -11 13 -33
19 -50 6 -16 12 -34 13 -40 1 -5 15 -44 32 -85 16 -41 37 -95 45 -120 9 -25
26 -70 37 -100 12 -30 23 -59 24 -65 2 -5 6 -17 9 -25 3 -8 29 -78 57 -155 28
-77 57 -156 65 -175 7 -19 32 -87 55 -150 23 -63 47 -126 53 -140 6 -14 12
-29 13 -35 7 -26 28 -82 39 -105 7 -14 16 -40 20 -57 3 -18 11 -35 16 -38 5
-4 9 -15 9 -26 0 -10 4 -27 9 -37 16 -31 41 -97 45 -118 3 -12 9 -30 15 -40 6
-11 26 -64 46 -119 20 -55 42 -116 49 -135 35 -89 58 -149 61 -161 11 -49 19
-59 44 -60 181 -6 524 -2 531 6 4 6 15 30 23 55 9 25 31 86 50 137 19 51 32
95 29 98 -3 3 -1 5 5 5 5 0 10 6 10 13 1 6 20 64 43 127 23 63 46 129 52 145
5 17 16 43 25 58 8 16 12 31 9 34 -3 4 -2 11 2 17 5 6 16 34 26 61 10 28 20
57 23 65 4 8 7 17 8 20 1 3 5 12 8 20 3 8 31 85 61 170 70 201 95 270 106 295
16 39 61 170 60 178 0 4 7 21 16 38 8 17 17 38 19 47 4 16 47 137 62 172 3 8
7 20 9 25 1 6 8 24 15 40 6 17 13 36 15 42 1 7 15 46 30 85 16 40 29 78 30 83
1 6 30 87 64 180 34 94 80 220 101 280 22 61 43 117 46 125 3 8 7 20 9 25 1 6
19 55 39 110 21 55 44 121 53 148 9 26 19 47 22 47 3 0 6 -664 5 -1475 0
-1304 2 -1475 15 -1476 106 -5 623 -2 627 4 7 12 6 3847 -1 3854 -3 4 -213 7
-467 7 -500 1 -483 3 -491 -54 -2 -14 -6 -29 -9 -35 -5 -8 -29 -76 -34 -95 -1
-3 -5 -12 -8 -20 -9 -22 -78 -222 -82 -240 -2 -8 -19 -58 -38 -110 -19 -52
-37 -102 -40 -110 -3 -8 -33 -98 -67 -200 -34 -102 -66 -194 -71 -205 -6 -12
-11 -27 -13 -35 -2 -8 -6 -23 -9 -32 -4 -10 -10 -26 -14 -35 -3 -10 -7 -23 -8
-29 -2 -5 -19 -55 -38 -110 -20 -54 -56 -160 -82 -234 -25 -74 -49 -142 -52
-150 -4 -8 -7 -18 -8 -22 -2 -5 -4 -11 -5 -15 -1 -5 -3 -12 -4 -18 -1 -5 -8
-23 -15 -40 -7 -16 -14 -37 -16 -45 -3 -12 -97 -286 -150 -435 -4 -11 -11 -31
-15 -45 -4 -14 -11 -34 -16 -45 -4 -11 -8 -24 -10 -30 -19 -69 -132 -382 -139
-387 -5 -4 -7 -8 -4 -8 6 0 -25 -102 -48 -160 -3 -8 -8 -24 -10 -35 -9 -48
-23 -28 -67 90 -25 70 -46 131 -46 136 0 5 -4 17 -9 27 -5 9 -13 28 -19 42
-14 35 -194 543 -197 555 -1 6 -8 24 -14 40 -7 17 -14 35 -15 42 -1 7 -5 16
-9 19 -4 4 -7 13 -7 20 0 7 -5 25 -11 41 -7 15 -29 75 -49 133 -21 58 -57 157
-80 220 -23 63 -43 120 -44 125 -2 6 -6 17 -9 25 -3 8 -20 56 -38 105 -17 50
-53 151 -79 225 -27 74 -56 158 -66 185 -9 28 -21 59 -26 70 -4 11 -26 72 -49
135 -22 63 -61 171 -85 240 -25 69 -46 130 -47 135 -2 6 -5 15 -9 20 -3 6 -10
26 -16 45 -6 19 -29 87 -52 150 -23 63 -44 123 -47 133 -3 9 -10 17 -17 18
-53 4 -936 3 -937 -1z"/>
</g>
</svg>
