<svg width="8" height="4" viewBox="0 0 8 4" fill="none" xmlns="http://www.w3.org/2000/svg">
<path d="M7.6883 0.851973C7.88269 0.655841 7.88127 0.339262 7.68514 0.144873C7.48901 -0.0495162 7.17243 -0.0481038 6.97804 0.148028L5.81317 1.32334C5.34041 1.80034 5.01505 2.12754 4.73937 2.34894C4.47157 2.564 4.29956 2.63778 4.14551 2.65742C4.04878 2.66975 3.9509 2.66975 3.85417 2.65742C3.70012 2.63778 3.5281 2.564 3.26031 2.34894C2.98462 2.12754 2.65926 1.80034 2.1865 1.32334L1.02163 0.148028C0.827242 -0.0481033 0.510663 -0.0495157 0.314531 0.144873C0.1184 0.339262 0.116988 0.655842 0.311377 0.851973L1.49723 2.04846C1.94386 2.49911 2.3089 2.86743 2.63414 3.12863C2.97236 3.40025 3.31565 3.59687 3.72773 3.64939C3.90841 3.67242 4.09126 3.67242 4.27195 3.64939C4.68402 3.59687 5.02732 3.40025 5.36553 3.12863C5.69078 2.86742 6.05581 2.49911 6.50244 2.04846L7.6883 0.851973Z" fill="#4A4A49"/>
</svg>
