<svg width="12" height="6" viewBox="0 0 12 6" fill="none" xmlns="http://www.w3.org/2000/svg">
<path d="M11.5327 1.27765C11.8243 0.983457 11.8222 0.508588 11.528 0.217004C11.2338 -0.0745796 10.7589 -0.0724609 10.4673 0.221736L8.72 1.9847C8.01086 2.7002 7.52282 3.191 7.1093 3.5231C6.7076 3.8457 6.44958 3.95637 6.2185 3.98582C6.07341 4.00432 5.92659 4.00432 5.7815 3.98582C5.55042 3.95637 5.2924 3.8457 4.89071 3.5231C4.47718 3.191 3.98914 2.7002 3.28 1.98471L1.53269 0.221737C1.24111 -0.0724602 0.766238 -0.0745788 0.472041 0.217005C0.177844 0.508588 0.175726 0.983457 0.467309 1.27765L2.24609 3.07238C2.91604 3.74836 3.46359 4.30083 3.95146 4.69264C4.45879 5.10007 4.97373 5.395 5.59184 5.47379C5.86287 5.50833 6.13714 5.50833 6.40816 5.47379C7.02628 5.395 7.54122 5.10007 8.04854 4.69264C8.53641 4.30083 9.08396 3.74836 9.7539 3.07239L11.5327 1.27765Z" fill="#4A4A49"/>
</svg>
