<svg width="59" height="35" viewBox="0 0 59 35" fill="none" xmlns="http://www.w3.org/2000/svg">
<path d="M11.5431 13.2626V5.76079C11.5431 4.95001 11.5774 4.05389 11.6459 3.07242H11.5774C11.4318 3.84053 11.3033 4.39527 11.1835 4.73665L8.22917 13.2712H5.90856L2.91147 4.82199C2.82583 4.59156 2.69739 4.01122 2.51756 3.07242H2.44049C2.51756 4.30992 2.55181 5.39381 2.55181 6.32407V13.2626H0V0.716898H4.15312L6.72206 8.15899C6.92758 8.7564 7.07315 9.35382 7.16734 9.95123H7.21872C7.37286 9.25994 7.54412 8.65399 7.71538 8.14192L10.3015 0.716898H14.3518V13.2626H11.5431Z" fill="white"/>
<path d="M24.4221 13.2626H21.7932V11.9739H21.7589C21.1595 12.981 20.2604 13.476 19.0787 13.476C18.2052 13.476 17.5202 13.2285 17.0235 12.7335C16.5268 12.2385 16.27 11.5813 16.27 10.762C16.27 9.02097 17.3061 8.02243 19.3698 7.74933L21.8103 7.42502C21.8103 6.44355 21.2794 5.95708 20.209 5.95708C19.1386 5.95708 18.1196 6.27286 17.152 6.91295V4.83053C17.5373 4.63424 18.0682 4.45501 18.7361 4.30139C19.4041 4.14777 20.0206 4.07096 20.5686 4.07096C23.129 4.07096 24.4135 5.3426 24.4135 7.89442V13.2541L24.4221 13.2626ZM21.8103 9.61839V9.01244L20.1747 9.2258C19.2756 9.34528 18.8218 9.7464 18.8218 10.4462C18.8218 10.762 18.9331 11.018 19.1472 11.2229C19.3698 11.4277 19.661 11.5216 20.0377 11.5216C20.5601 11.5216 20.9797 11.3424 21.3136 10.9839C21.639 10.6255 21.8017 10.1731 21.8017 9.62692L21.8103 9.61839Z" fill="white"/>
<path d="M32.48 6.802C32.146 6.62278 31.7607 6.5289 31.3154 6.5289C30.716 6.5289 30.245 6.75079 29.9025 7.18605C29.5599 7.62131 29.3972 8.22726 29.3972 8.98683V13.2626H26.6228V4.30139H29.3972V5.96562H29.4315C29.8682 4.75372 30.6646 4.14777 31.8035 4.14777C32.0946 4.14777 32.3258 4.18191 32.4885 4.25018V6.79347L32.48 6.802Z" fill="white"/>
<path d="M42.7814 13.2626H39.4504L36.5817 8.81614H36.5475V13.2626H33.773V0H36.5475V8.44916H36.5817L39.262 4.30992H42.5588L39.339 8.51743L42.79 13.2712L42.7814 13.2626Z" fill="white"/>
<path d="M46.0354 9.57571C46.1296 10.873 46.9517 11.5301 48.5016 11.5301C49.4949 11.5301 50.3598 11.2997 51.1133 10.8303V12.8274C50.2827 13.2712 49.2038 13.4931 47.8765 13.4931C46.4208 13.4931 45.299 13.0919 44.494 12.2897C43.6891 11.4874 43.2952 10.3694 43.2952 8.93563C43.2952 7.50183 43.7319 6.27286 44.5968 5.40234C45.4617 4.53182 46.5321 4.09656 47.7909 4.09656C49.0496 4.09656 50.12 4.48061 50.8308 5.25725C51.5415 6.03389 51.9097 7.08364 51.9097 8.41502V9.57571H46.0354ZM49.3322 7.87735C49.3322 6.59717 48.8099 5.94855 47.7652 5.94855C47.3199 5.94855 46.9345 6.13631 46.6091 6.50329C46.2837 6.87028 46.0868 7.33114 46.0183 7.87735H49.3322Z" fill="white"/>
<path d="M58.9914 13.1602C58.5804 13.3736 57.9639 13.4845 57.1418 13.4845C55.1894 13.4845 54.2132 12.4689 54.2132 10.4462V6.34114H52.7575V4.30139H54.2132V2.37259L56.9791 1.58742V4.30992H59V6.34967H56.9791V9.97684C56.9791 10.9071 57.3473 11.3765 58.0923 11.3765C58.3834 11.3765 58.6832 11.2911 59 11.1205V13.1687L58.9914 13.1602Z" fill="white"/>
<path d="M0 34.7781V22.2324H4.58128C5.98563 22.2324 7.06459 22.4884 7.81814 23.0005C8.5717 23.5126 8.94848 24.238 8.94848 25.1683C8.94848 25.8425 8.71727 26.4399 8.26342 26.9434C7.80102 27.447 7.21872 27.8054 6.49942 28.0017V28.0358C7.39855 28.1468 8.10929 28.4796 8.64877 29.0258C9.17968 29.5721 9.4537 30.2463 9.4537 31.0315C9.4537 32.1836 9.04267 33.0968 8.21205 33.7625C7.38999 34.4367 6.25965 34.7696 4.82961 34.7696H0V34.7781ZM2.8344 24.3148V27.2933H4.08462C4.66691 27.2933 5.12932 27.1483 5.46328 26.8666C5.79724 26.585 5.9685 26.1924 5.9685 25.6974C5.9685 24.7757 5.27489 24.3148 3.89623 24.3148H2.8344ZM2.8344 29.3928V32.7042H4.3672C5.02656 32.7042 5.54035 32.5506 5.90856 32.2519C6.27678 31.9446 6.46517 31.535 6.46517 31.0059C6.46517 30.4767 6.28534 30.1097 5.91713 29.8281C5.54891 29.5465 5.04369 29.4014 4.38432 29.4014H2.8344V29.3928Z" fill="white"/>
<path d="M12.6649 24.3916C12.1939 24.3916 11.8171 24.2551 11.5174 23.9734C11.2177 23.7003 11.0721 23.3589 11.0721 22.9578C11.0721 22.5567 11.2177 22.2068 11.5174 21.9422C11.8171 21.6776 12.2025 21.5496 12.6649 21.5496C13.1273 21.5496 13.5212 21.6776 13.8209 21.9422C14.1206 22.2068 14.2662 22.5396 14.2662 22.9578C14.2662 23.376 14.1206 23.7259 13.8209 23.9905C13.5212 24.2551 13.1444 24.3916 12.6649 24.3916ZM14.035 34.7696H11.2605V25.8083H14.035V34.7696Z" fill="white"/>
<path d="M21.8017 34.6672C21.3907 34.8805 20.7742 34.9915 19.9521 34.9915C17.9997 34.9915 17.0235 33.9759 17.0235 31.9532V27.8481H15.5678V25.8083H17.0235V23.871L19.7894 23.0858V25.8083H21.8103V27.8481H19.7894V31.4753C19.7894 32.4055 20.1576 32.8749 20.9026 32.8749C21.1938 32.8749 21.4935 32.7896 21.8103 32.6189V34.6672H21.8017Z" fill="white"/>
<path d="M25.5781 31.0827C25.6723 32.3799 26.4943 33.0371 28.0443 33.0371C29.0376 33.0371 29.9025 32.8066 30.656 32.3372V34.3343C29.8254 34.7781 28.7464 35 27.4192 35C25.9634 35 24.8417 34.5989 24.0367 33.7966C23.2318 32.9944 22.8379 31.8764 22.8379 30.4426C22.8379 29.0088 23.2746 27.7798 24.1395 26.9093C25.0044 26.0388 26.0747 25.6035 27.3335 25.6035C28.5923 25.6035 29.6627 25.9876 30.3734 26.7642C31.0842 27.5408 31.4524 28.5906 31.4524 29.922V31.0827H25.5781ZM28.8749 29.3843C28.8749 28.1041 28.3525 27.4555 27.3078 27.4555C26.8626 27.4555 26.4772 27.6433 26.1518 28.0102C25.8264 28.3772 25.6295 28.8381 25.561 29.3843H28.8749Z" fill="white"/>
</svg>
