<svg width="69" height="42" viewBox="0 0 69 42" fill="none" xmlns="http://www.w3.org/2000/svg">
<path d="M13.48 15.54V6.75C13.48 5.8 13.52 4.75 13.6 3.6H13.52C13.35 4.5 13.2 5.15 13.06 5.55L9.61 15.55H6.9L3.4 5.65C3.3 5.38 3.15 4.7 2.94 3.6H2.85C2.94 5.05 2.98 6.32 2.98 7.41V15.54H0V0.84H4.85L7.85 9.56C8.09 10.26 8.26 10.96 8.37 11.66H8.43C8.61 10.85 8.81 10.14 9.01 9.54L12.03 0.84H16.76V15.54H13.48Z" fill="#1D1D1B"/>
<path d="M28.52 15.54H25.45V14.03H25.41C24.71 15.21 23.66 15.79 22.28 15.79C21.26 15.79 20.46 15.5 19.88 14.92C19.3 14.34 19 13.57 19 12.61C19 10.57 20.21 9.4 22.62 9.08L25.47 8.7C25.47 7.55 24.85 6.98 23.6 6.98C22.35 6.98 21.16 7.35 20.03 8.1V5.66C20.48 5.43 21.1 5.22 21.88 5.04C22.66 4.86 23.38 4.77 24.02 4.77C27.01 4.77 28.51 6.26 28.51 9.25V15.53L28.52 15.54ZM25.47 11.27V10.56L23.56 10.81C22.51 10.95 21.98 11.42 21.98 12.24C21.98 12.61 22.11 12.91 22.36 13.15C22.62 13.39 22.96 13.5 23.4 13.5C24.01 13.5 24.5 13.29 24.89 12.87C25.27 12.45 25.46 11.92 25.46 11.28L25.47 11.27Z" fill="#1D1D1B"/>
<path d="M37.93 7.97C37.54 7.76 37.09 7.65 36.57 7.65C35.87 7.65 35.32 7.91 34.92 8.42C34.52 8.93 34.33 9.64 34.33 10.53V15.54H31.09V5.04H34.33V6.99H34.37C34.88 5.57 35.81 4.86 37.14 4.86C37.48 4.86 37.75 4.9 37.94 4.98V7.96L37.93 7.97Z" fill="#1D1D1B"/>
<path d="M49.96 15.54H46.07L42.72 10.33H42.68V15.54H39.44V0H42.68V9.9H42.72L45.85 5.05H49.7L45.94 9.98L49.97 15.55L49.96 15.54Z" fill="#1D1D1B"/>
<path d="M53.76 11.22C53.87 12.74 54.83 13.51 56.64 13.51C57.8 13.51 58.81 13.24 59.69 12.69V15.03C58.72 15.55 57.46 15.81 55.91 15.81C54.21 15.81 52.9 15.34 51.96 14.4C51.02 13.46 50.56 12.15 50.56 10.47C50.56 8.79 51.07 7.35 52.08 6.33C53.09 5.31 54.34 4.8 55.81 4.8C57.28 4.8 58.53 5.25 59.36 6.16C60.19 7.07 60.62 8.3 60.62 9.86V11.22H53.76ZM57.61 9.23C57.61 7.73 57 6.97 55.78 6.97C55.26 6.97 54.81 7.19 54.43 7.62C54.05 8.05 53.82 8.59 53.74 9.23H57.61Z" fill="#1D1D1B"/>
<path d="M68.89 15.42C68.41 15.67 67.69 15.8 66.73 15.8C64.45 15.8 63.31 14.61 63.31 12.24V7.43H61.61V5.04H63.31V2.78L66.54 1.86V5.05H68.9V7.44H66.54V11.69C66.54 12.78 66.97 13.33 67.84 13.33C68.18 13.33 68.53 13.23 68.9 13.03V15.43L68.89 15.42Z" fill="#1D1D1B"/>
<path d="M0 40.75V26.05H5.35C6.99 26.05 8.25 26.35 9.13 26.95C10.01 27.55 10.45 28.4 10.45 29.49C10.45 30.28 10.18 30.98 9.65 31.57C9.11 32.16 8.43 32.58 7.59 32.81V32.85C8.64 32.98 9.47 33.37 10.1 34.01C10.72 34.65 11.04 35.44 11.04 36.36C11.04 37.71 10.56 38.78 9.59 39.56C8.63 40.35 7.31 40.74 5.64 40.74H0V40.75ZM3.31 28.49V31.98H4.77C5.45 31.98 5.99 31.81 6.38 31.48C6.77 31.15 6.97 30.69 6.97 30.11C6.97 29.03 6.16 28.49 4.55 28.49H3.31ZM3.31 34.44V38.32H5.1C5.87 38.32 6.47 38.14 6.9 37.79C7.33 37.43 7.55 36.95 7.55 36.33C7.55 35.71 7.34 35.28 6.91 34.95C6.48 34.62 5.89 34.45 5.12 34.45H3.31V34.44Z" fill="#713EE6"/>
<path d="M14.79 28.58C14.24 28.58 13.8 28.42 13.45 28.09C13.1 27.77 12.93 27.37 12.93 26.9C12.93 26.43 13.1 26.02 13.45 25.71C13.8 25.4 14.25 25.25 14.79 25.25C15.33 25.25 15.79 25.4 16.14 25.71C16.49 26.02 16.66 26.41 16.66 26.9C16.66 27.39 16.49 27.8 16.14 28.11C15.79 28.42 15.35 28.58 14.79 28.58ZM16.39 40.74H13.15V30.24H16.39V40.74Z" fill="#713EE6"/>
<path d="M25.46 40.62C24.98 40.87 24.26 41 23.3 41C21.02 41 19.88 39.81 19.88 37.44V32.63H18.18V30.24H19.88V27.97L23.11 27.05V30.24H25.47V32.63H23.11V36.88C23.11 37.97 23.54 38.52 24.41 38.52C24.75 38.52 25.1 38.42 25.47 38.22V40.62H25.46Z" fill="#713EE6"/>
<path d="M29.87 36.42C29.98 37.94 30.94 38.71 32.75 38.71C33.91 38.71 34.92 38.44 35.8 37.89V40.23C34.83 40.75 33.57 41.01 32.02 41.01C30.32 41.01 29.01 40.54 28.07 39.6C27.13 38.66 26.67 37.35 26.67 35.67C26.67 33.99 27.18 32.55 28.19 31.53C29.2 30.51 30.45 30 31.92 30C33.39 30 34.64 30.45 35.47 31.36C36.3 32.27 36.73 33.5 36.73 35.06V36.42H29.87ZM33.72 34.43C33.72 32.93 33.11 32.17 31.89 32.17C31.37 32.17 30.92 32.39 30.54 32.82C30.16 33.25 29.93 33.79 29.85 34.43H33.72Z" fill="#713EE6"/>
</svg>
