<svg width="56" height="56" viewBox="0 0 56 56" fill="none" xmlns="http://www.w3.org/2000/svg">
<path d="M40.5537 15.9204H34.6498L28.1352 34.8195L21.3832 15.9204H15.4454V40.0786H19.4492V21.451L26.337 40.0786H29.7978L36.516 21.451V40.0786H40.5537V15.9204Z" fill="#828282"/>
<path fill-rule="evenodd" clip-rule="evenodd" d="M27.9995 51.3191C40.8786 51.3191 51.3191 40.8786 51.3191 27.9995C51.3191 15.1205 40.8786 4.68 27.9995 4.68C15.1205 4.68 4.68 15.1205 4.68 27.9995C4.68 40.8786 15.1205 51.3191 27.9995 51.3191ZM27.9995 55.9991C43.4633 55.9991 55.9991 43.4633 55.9991 27.9995C55.9991 12.5358 43.4633 0 27.9995 0C12.5358 0 0 12.5358 0 27.9995C0 43.4633 12.5358 55.9991 27.9995 55.9991Z" fill="#713EE6"/>
</svg>
