<svg width="28" height="23" viewBox="0 0 28 23" fill="none" xmlns="http://www.w3.org/2000/svg">
<path fill-rule="evenodd" clip-rule="evenodd" d="M4.66669 22.1364C3.60582 22.1364 2.58841 21.715 1.83826 20.9649C1.08811 20.2147 0.666687 19.1973 0.666687 18.1364V4.8031C0.666687 3.74223 1.08811 2.72482 1.83826 1.97467C2.58841 1.22453 3.60582 0.803101 4.66669 0.803101H23.3334C24.3942 0.803101 25.4116 1.22453 26.1618 1.97467C26.9119 2.72482 27.3334 3.74223 27.3334 4.8031V18.1364C27.3334 19.1973 26.9119 20.2147 26.1618 20.9649C25.4116 21.715 24.3942 22.1364 23.3334 22.1364H4.66669ZM8.16669 6.42977C8.03087 6.31379 7.87313 6.22628 7.70284 6.17244C7.53255 6.11859 7.35318 6.09951 7.17537 6.11632C6.99756 6.13313 6.82494 6.18549 6.66776 6.2703C6.51058 6.3551 6.37204 6.47062 6.26036 6.60999C6.14868 6.74937 6.06614 6.90976 6.01764 7.08165C5.96913 7.25354 5.95566 7.43342 5.97801 7.61062C6.00037 7.78781 6.05809 7.95871 6.14777 8.11317C6.23744 8.26763 6.35722 8.40249 6.50002 8.50977L11.5 12.5111C12.2095 13.0791 13.0912 13.3886 14 13.3886C14.9088 13.3886 15.7906 13.0791 16.5 12.5111L21.5 8.5111C21.6368 8.40167 21.7506 8.26637 21.8351 8.11293C21.9195 7.9595 21.973 7.79092 21.9923 7.61685C22.0116 7.44277 21.9964 7.26659 21.9477 7.09837C21.8989 6.93015 21.8175 6.77318 21.708 6.63643C21.5986 6.49968 21.4633 6.38583 21.3098 6.30137C21.1564 6.2169 20.9878 6.16349 20.8138 6.14418C20.6397 6.12486 20.4635 6.14003 20.2953 6.1888C20.1271 6.23757 19.9701 6.319 19.8334 6.42843L14.8334 10.4284C14.5969 10.6178 14.303 10.7209 14 10.7209C13.6971 10.7209 13.4032 10.6178 13.1667 10.4284L8.16669 6.42843V6.42977Z" fill="white"/>
</svg>
