<svg width="24" height="24" viewBox="0 0 24 24" fill="none" xmlns="http://www.w3.org/2000/svg">
<path fill-rule="evenodd" clip-rule="evenodd" d="M16.6648 3.80233C16.3492 3.75234 15.9577 3.75001 15 3.75001H14C13.0424 3.75001 12.1607 4.06583 11.4504 4.59932C11.1192 4.84808 10.6491 4.78127 10.4003 4.45008C10.1516 4.11888 10.2184 3.64874 10.5496 3.39997C11.5106 2.67807 12.7064 2.25001 14 2.25001L15.0808 2.25C15.9328 2.24994 16.4518 2.2499 16.8995 2.3208C19.3599 2.71049 21.2895 4.64013 21.6792 7.10051C21.7501 7.54819 21.7501 8.06718 21.75 8.91921V15.0808C21.7501 15.9328 21.7501 16.4518 21.6792 16.8995C21.2895 19.3599 19.3599 21.2895 16.8995 21.6792C16.4518 21.7501 15.9329 21.7501 15.0809 21.75L14 21.75C12.7064 21.75 11.5106 21.3219 10.5496 20.6C10.2184 20.3513 10.1516 19.8811 10.4003 19.5499C10.6491 19.2188 11.1192 19.1519 11.4504 19.4007C12.1607 19.9342 13.0424 20.25 14 20.25H15C15.9577 20.25 16.3492 20.2477 16.6648 20.1977C18.4834 19.9097 19.9096 18.4834 20.1977 16.6649C20.2477 16.3492 20.25 15.9577 20.25 15V9.00001C20.25 8.04234 20.2477 7.65083 20.1977 7.33516C19.9096 5.51662 18.4834 4.09036 16.6648 3.80233ZM12.4123 7.53404C12.6697 7.20947 13.1414 7.15498 13.466 7.41233L15.2648 8.83858C15.9372 9.37176 16.4922 9.81173 16.8875 10.2055C17.2932 10.6096 17.6294 11.0582 17.7208 11.6313C17.7402 11.7534 17.75 11.8766 17.75 12C17.75 12.1234 17.7402 12.2466 17.7208 12.3687C17.6294 12.9418 17.2932 13.3904 16.8875 13.7945C16.4922 14.1883 15.9373 14.6282 15.2648 15.1614L13.466 16.5877C13.1414 16.845 12.6697 16.7905 12.4123 16.466C12.155 16.1414 12.2095 15.6697 12.534 15.4123L14.297 14.0145C15.001 13.4563 15.483 13.0727 15.8105 12.75L3 12.75C2.58579 12.75 2.25 12.4142 2.25 12C2.25 11.5858 2.58579 11.25 3 11.25L15.8105 11.25C15.483 10.9274 15.001 10.5438 14.297 9.98554L12.534 8.58769C12.2095 8.33034 12.155 7.85861 12.4123 7.53404Z" fill="white"/>
</svg>
