<svg width="24" height="25" viewBox="0 0 24 25" fill="none" xmlns="http://www.w3.org/2000/svg">
	<path
		d="M20 4.46973C22.76 7.18973 23.8 10.9897 23.1467 14.5364C23.6933 15.4964 24 16.6164 24 17.8031C24 19.5712 23.2976 21.2669 22.0474 22.5171C20.7971 23.7673 19.1014 24.4697 17.3333 24.4697C16.1467 24.4697 15.0267 24.1631 14.0667 23.6164C10.52 24.2697 6.72 23.2297 4 20.4697C1.24 17.7497 0.2 13.9497 0.853333 10.4031C0.306667 9.44306 0 8.32306 0 7.13639C0 5.36828 0.702379 3.67259 1.95262 2.42235C3.20286 1.17211 4.89856 0.469727 6.66667 0.469727C7.85333 0.469727 8.97333 0.776393 9.93333 1.32306C13.48 0.669727 17.28 1.70973 20 4.46973ZM12.0533 19.3497C15.88 19.3497 17.7867 17.5097 17.7867 15.0297C17.7867 13.4431 17.04 11.7497 14.1467 11.0964L11.4933 10.5097C10.48 10.2831 9.33333 9.97639 9.33333 9.02973C9.33333 8.06973 10.1333 7.40306 11.6 7.40306C14.5733 7.40306 14.2933 9.44306 15.7733 9.44306C16.5467 9.44306 17.2133 8.98973 17.2133 8.20306C17.2133 6.37639 14.2933 5.00306 11.8133 5.00306C9.13333 5.00306 6.26667 6.14973 6.26667 9.18973C6.26667 10.6564 6.78667 12.2164 9.66667 12.9364L13.2533 13.8431C14.3333 14.1097 14.6 14.7097 14.6 15.2697C14.6 16.1764 13.6933 17.0697 12.0533 17.0697C8.84 17.0697 9.28 14.6031 7.56 14.6031C6.78667 14.6031 6.22667 15.1364 6.22667 15.8964C6.22667 17.3764 8 19.3497 12.0533 19.3497Z" />
</svg>