<svg width="55" height="55" viewBox="0 0 55 55" fill="none" xmlns="http://www.w3.org/2000/svg">
<path d="M0 28.5407C0 25.2269 2.68629 22.5406 6 22.5406H49C52.3137 22.5406 55 25.2269 55 28.5406V37.2783C55 40.5921 52.3137 43.2783 49 43.2783H6C2.68629 43.2783 0 40.5921 0 37.2783V28.5407Z" fill="url(#paint0_linear_1_587)"/>
<path d="M0 28.5407C0 25.2269 2.68629 22.5406 6 22.5406H49C52.3137 22.5406 55 25.2269 55 28.5406V37.2783C55 40.5921 52.3137 43.2783 49 43.2783H6C2.68629 43.2783 0 40.5921 0 37.2783V28.5407Z" fill="url(#paint1_linear_1_587)"/>
<path d="M9.91815 28.4014C9.91815 18.6912 17.7899 10.8195 27.5001 10.8195C37.2104 10.8195 45.0821 18.6912 45.0821 28.4014V37.4178C45.0821 47.1281 37.2104 54.9998 27.5001 54.9998C17.7899 54.9998 9.91815 47.1281 9.91815 37.4178V28.4014Z" fill="url(#paint2_linear_1_587)"/>
<path d="M49.5902 42.377L49.5899 27.6214C49.6166 22.7587 48.038 18.023 45.099 14.1489C42.16 10.2748 38.0247 7.47868 33.3346 6.1943C28.6445 4.90991 23.6616 5.20901 19.1588 7.0452C14.656 8.88139 10.8849 12.1521 8.43043 16.3499C7.67638 17.6395 6.01967 18.0737 4.73005 17.3197C3.44044 16.5656 3.00627 14.9089 3.76031 13.6193C6.81593 8.39337 11.5106 4.32172 17.1161 2.03586C22.7216 -0.250011 28.9248 -0.622356 34.7635 0.976573C40.6022 2.5755 45.7502 6.05634 49.409 10.8792C53.0678 15.7021 55.0329 21.5976 54.9996 27.6512L55.0001 42.377C55.0001 49.3485 49.3486 55 42.3771 55H30.205C28.7111 55 27.5001 53.789 27.5001 52.2951C27.5001 50.8012 28.7111 49.5902 30.205 49.5902H42.3771C46.3608 49.5902 49.5902 46.3607 49.5902 42.377Z" fill="url(#paint3_linear_1_587)"/>
<path d="M49.5902 42.377L49.5899 27.6214C49.6166 22.7587 48.038 18.023 45.099 14.1489C42.16 10.2748 38.0247 7.47868 33.3346 6.1943C28.6445 4.90991 23.6616 5.20901 19.1588 7.0452C14.656 8.88139 10.8849 12.1521 8.43043 16.3499C7.67638 17.6395 6.01967 18.0737 4.73005 17.3197C3.44044 16.5656 3.00627 14.9089 3.76031 13.6193C6.81593 8.39337 11.5106 4.32172 17.1161 2.03586C22.7216 -0.250011 28.9248 -0.622356 34.7635 0.976573C40.6022 2.5755 45.7502 6.05634 49.409 10.8792C53.0678 15.7021 55.0329 21.5976 54.9996 27.6512L55.0001 42.377C55.0001 49.3485 49.3486 55 42.3771 55H30.205C28.7111 55 27.5001 53.789 27.5001 52.2951C27.5001 50.8012 28.7111 49.5902 30.205 49.5902H42.3771C46.3608 49.5902 49.5902 46.3607 49.5902 42.377Z" fill="url(#paint4_linear_1_587)"/>
<defs>
<linearGradient id="paint0_linear_1_587" x1="27.5" y1="22.5406" x2="27.5" y2="43.2783" gradientUnits="userSpaceOnUse">
<stop stop-color="#8DDDD8"/>
<stop offset="1" stop-color="#3AC2BA"/>
</linearGradient>
<linearGradient id="paint1_linear_1_587" x1="27.5" y1="22.5406" x2="27.5" y2="43.2783" gradientUnits="userSpaceOnUse">
<stop stop-color="#8F6DFF"/>
<stop offset="1" stop-color="#542CA7"/>
</linearGradient>
<linearGradient id="paint2_linear_1_587" x1="27.5001" y1="10.8195" x2="27.5001" y2="54.9998" gradientUnits="userSpaceOnUse">
<stop stop-color="#D1C2FF"/>
<stop offset="1" stop-color="#9C7DFF"/>
</linearGradient>
<linearGradient id="paint3_linear_1_587" x1="29.195" y1="0" x2="29.195" y2="55" gradientUnits="userSpaceOnUse">
<stop stop-color="#8DDDD8"/>
<stop offset="1" stop-color="#3AC2BA"/>
</linearGradient>
<linearGradient id="paint4_linear_1_587" x1="29.195" y1="0" x2="29.195" y2="55" gradientUnits="userSpaceOnUse">
<stop stop-color="#8F6DFF"/>
<stop offset="1" stop-color="#542CA7"/>
</linearGradient>
</defs>
</svg>
