<svg width="28" height="27" viewBox="0 0 28 27" fill="none" xmlns="http://www.w3.org/2000/svg">
<path d="M14 0.136353C6.63999 0.136353 0.666656 6.10969 0.666656 13.4697C0.666656 20.8297 6.63999 26.803 14 26.803C21.36 26.803 27.3333 20.8297 27.3333 13.4697C27.3333 6.10969 21.36 0.136353 14 0.136353ZM20.1867 9.20302C19.9867 11.3097 19.12 16.4297 18.68 18.7897C18.4933 19.7897 18.12 20.123 17.7733 20.163C17 20.2297 16.4133 19.6564 15.6667 19.163C14.4933 18.3897 13.8267 17.9097 12.6933 17.163C11.3733 16.2964 12.2267 15.8164 12.9867 15.043C13.1867 14.843 16.6 11.7364 16.6667 11.4564C16.6759 11.4139 16.6747 11.3699 16.6631 11.3281C16.6514 11.2863 16.6298 11.2479 16.6 11.2164C16.52 11.1497 16.4133 11.1764 16.32 11.1897C16.2 11.2164 14.3333 12.4564 10.6933 14.9097C10.16 15.2697 9.67999 15.4564 9.25332 15.443C8.77332 15.4297 7.86666 15.1764 7.18666 14.9497C6.34666 14.683 5.69332 14.5364 5.74666 14.0697C5.77332 13.8297 6.10666 13.5897 6.73332 13.3364C10.6267 11.643 13.2133 10.523 14.5067 9.98969C18.2133 8.44302 18.9733 8.17635 19.48 8.17635C19.5867 8.17635 19.84 8.20302 20 8.33635C20.1333 8.44302 20.1733 8.58969 20.1867 8.69635C20.1733 8.77635 20.2 9.01635 20.1867 9.20302Z" fill="white"/>
</svg>
