<svg width="40" height="40" viewBox="0 0 40 40" fill="none" xmlns="http://www.w3.org/2000/svg">
<path d="M29 11H24.7676L20.0973 25.0815L15.2568 11H11V29H13.8703V15.1208L18.8081 29H21.2892L26.1054 15.1208V29H29V11Z" fill="white"/>
<path fill-rule="evenodd" clip-rule="evenodd" d="M20 35.32C28.461 35.32 35.32 28.461 35.32 20C35.32 11.539 28.461 4.68 20 4.68C11.539 4.68 4.68 11.539 4.68 20C4.68 28.461 11.539 35.32 20 35.32ZM20 40C31.0457 40 40 31.0457 40 20C40 8.9543 31.0457 0 20 0C8.9543 0 0 8.9543 0 20C0 31.0457 8.9543 40 20 40Z" fill="white"/>
</svg>
