<svg width="1051" height="663" viewBox="0 0 1051 663" fill="none" xmlns="http://www.w3.org/2000/svg">
<mask id="mask0_1_16" style="mask-type:alpha" maskUnits="userSpaceOnUse" x="26" y="0" width="5479" height="663">
<path d="M109.816 53.3847L149 0H5504.02V662.551H421.507C334.691 662.551 291.283 662.551 256.059 641.343C220.835 620.135 200.525 581.772 159.905 505.045L86.8358 367.024C44.6149 287.273 23.5044 247.397 26.6146 204.95C29.7247 162.503 56.4219 126.13 109.816 53.3847Z" fill="#6E3BF5"/>
</mask>
<g mask="url(#mask0_1_16)">
<path d="M-29.9802 367V0H6163.02V663H266.02C126.484 663 56.7162 663 13.368 619.652C-29.9802 576.304 -29.9802 506.536 -29.9802 367Z" fill="#713EE6"/>
<circle opacity="0.3" cx="844.809" cy="275.789" r="279.763" transform="rotate(107.767 844.809 275.789)" fill="url(#paint0_radial_1_16)"/>
<circle opacity="0.3" cx="229.315" cy="41.2952" r="122.131" transform="rotate(-49.0152 229.315 41.2952)" fill="url(#paint1_radial_1_16)"/>
<circle opacity="0.3" cx="392.805" cy="600.806" r="202.632" transform="rotate(-165.146 392.805 600.806)" fill="url(#paint2_radial_1_16)"/>
</g>
<defs>
<radialGradient id="paint0_radial_1_16" cx="0" cy="0" r="1" gradientUnits="userSpaceOnUse" gradientTransform="translate(874.896 53.4914) rotate(101.546) scale(607.223)">
<stop offset="0.50046" stop-color="#713EE6"/>
<stop offset="1" stop-color="#EEF0F6"/>
</radialGradient>
<radialGradient id="paint1_radial_1_16" cx="0" cy="0" r="1" gradientUnits="userSpaceOnUse" gradientTransform="translate(242.449 -55.7489) rotate(101.546) scale(265.084)">
<stop offset="0.50046" stop-color="#713EE6"/>
<stop offset="1" stop-color="#EEF0F6"/>
</radialGradient>
<radialGradient id="paint2_radial_1_16" cx="0" cy="0" r="1" gradientUnits="userSpaceOnUse" gradientTransform="translate(414.597 439.796) rotate(101.546) scale(439.81)">
<stop offset="0.50046" stop-color="#713EE6"/>
<stop offset="1" stop-color="#EEF0F6"/>
</radialGradient>
</defs>
</svg>
