<svg width="902" height="734" viewBox="0 0 902 734" fill="none" xmlns="http://www.w3.org/2000/svg">
<mask id="mask0_1_93" style="mask-type:alpha" maskUnits="userSpaceOnUse" x="-4018" y="0" width="4853" height="734">
<path d="M776.772 412.372L735.359 376.636C735.026 376.349 734.86 376.206 734.71 376.076C686.452 334.207 670.508 266.098 695.169 207.16C695.245 206.976 695.331 206.774 695.501 206.37C695.828 205.594 695.992 205.205 696.111 204.918C736.624 107.679 665.456 0.444268 560.116 0.00130849C559.805 0 559.384 0 558.542 0H-4017.5V734H563.206C569.879 734 573.216 734 576.428 733.93C652.146 732.28 724.328 701.573 778.027 648.167C780.305 645.901 782.619 643.497 787.247 638.69L787.248 638.689C792.667 633.06 795.376 630.245 797.53 627.801C850.291 567.929 846.082 477.007 788.016 422.264C785.646 420.029 782.688 417.477 776.772 412.372Z" fill="#6E3BF5"/>
</mask>
<g mask="url(#mask0_1_93)">
<rect x="-4017" width="4887" height="734" fill="url(#paint0_linear_1_93)"/>
<circle opacity="0.3" cx="131.784" cy="131.784" r="131.784" transform="matrix(-0.3063 0.951935 0.951935 0.3063 128.731 83)" fill="url(#paint1_radial_1_93)"/>
<circle opacity="0.3" cx="130.38" cy="130.38" r="130.38" transform="matrix(-0.49907 -0.866561 -0.866561 0.49907 735.102 157.964)" fill="url(#paint2_radial_1_93)"/>
<circle opacity="0.3" cx="274.889" cy="274.889" r="274.889" transform="matrix(0.999383 0.0351222 0.0351222 -0.999383 42.9999 1005.44)" fill="url(#paint3_radial_1_93)"/>
</g>
<defs>
<linearGradient id="paint0_linear_1_93" x1="-629.672" y1="-229.893" x2="-680.415" y2="706.447" gradientUnits="userSpaceOnUse">
<stop stop-color="#F5F0FF"/>
<stop offset="1" stop-color="#D2C1F7"/>
</linearGradient>
<radialGradient id="paint1_radial_1_93" cx="0" cy="0" r="1" gradientUnits="userSpaceOnUse" gradientTransform="translate(145.956 27.0696) rotate(101.546) scale(286.035)">
<stop offset="0.50046" stop-color="#E4D9FC"/>
<stop offset="1" stop-color="#713EE6"/>
</radialGradient>
<radialGradient id="paint2_radial_1_93" cx="0" cy="0" r="1" gradientUnits="userSpaceOnUse" gradientTransform="translate(144.401 26.7812) rotate(101.546) scale(282.988)">
<stop offset="0.50046" stop-color="#E4D9FC"/>
<stop offset="1" stop-color="#713EE6"/>
</radialGradient>
<radialGradient id="paint3_radial_1_93" cx="0" cy="0" r="1" gradientUnits="userSpaceOnUse" gradientTransform="translate(304.451 56.4647) rotate(101.546) scale(596.643)">
<stop offset="0.50046" stop-color="#E4D9FC"/>
<stop offset="1" stop-color="#713EE6"/>
</radialGradient>
</defs>
</svg>
